<svg xmlns="http://www.w3.org/2000/svg" xmlns:xlink="http://www.w3.org/1999/xlink" width="500" zoomAndPan="magnify" viewBox="0 0 375 374.999991" height="500" preserveAspectRatio="xMidYMid meet" version="1.0"><defs><g/><clipPath id="0ee62714f9"><path d="M 143 92 L 232 92 L 232 212.484375 L 143 212.484375 Z M 143 92 " clip-rule="nonzero"/></clipPath><clipPath id="aa5a387b05"><path d="M 186 92 L 189 92 L 189 212.484375 L 186 212.484375 Z M 186 92 " clip-rule="nonzero"/></clipPath><clipPath id="4257a95448"><path d="M 230 145 L 232 145 L 232 212.484375 L 230 212.484375 Z M 230 145 " clip-rule="nonzero"/></clipPath><clipPath id="4102cde951"><path d="M 273 200 L 276 200 L 276 212.484375 L 273 212.484375 Z M 273 200 " clip-rule="nonzero"/></clipPath><clipPath id="2f5caeed8a"><path d="M 317 207 L 320 207 L 320 212.484375 L 317 212.484375 Z M 317 207 " clip-rule="nonzero"/></clipPath><clipPath id="de5474a39d"><path d="M 143 210 L 145 210 L 145 212.484375 L 143 212.484375 Z M 143 210 " clip-rule="nonzero"/></clipPath><clipPath id="2977d3d700"><path d="M 99 200 L 102 200 L 102 212.484375 L 99 212.484375 Z M 99 200 " clip-rule="nonzero"/></clipPath><clipPath id="ec48187ef1"><path d="M 55 207 L 58 207 L 58 212.484375 L 55 212.484375 Z M 55 207 " clip-rule="nonzero"/></clipPath><clipPath id="c5bce12a02"><path d="M 138.238281 91.792969 L 337.5 91.792969 L 337.5 212.429688 L 138.238281 212.429688 Z M 138.238281 91.792969 " clip-rule="nonzero"/></clipPath><clipPath id="e04f5bc1ac"><path d="M 37.5 91.792969 L 236.796875 91.792969 L 236.796875 212.429688 L 37.5 212.429688 Z M 37.5 91.792969 " clip-rule="nonzero"/></clipPath><clipPath id="1e761641e5"><path d="M 37.5 211 L 188.199219 211 L 188.199219 212.429688 L 37.5 212.429688 Z M 37.5 211 " clip-rule="nonzero"/></clipPath><clipPath id="fe5b5404ca"><path d="M 186.746094 211 L 337.5 211 L 337.5 212.429688 L 186.746094 212.429688 Z M 186.746094 211 " clip-rule="nonzero"/></clipPath></defs><path fill="#cb9f9f" d="M 317.960938 211.730469 L 57.042969 211.730469 L 57.042969 207.96875 C 57.042969 207.96875 83.019531 208.246094 100.496094 201.335938 C 109.996094 197.058594 262.207031 197.089844 274.503906 201.335938 C 291.945312 209.234375 317.960938 207.96875 317.960938 207.96875 L 317.960938 211.730469 " fill-opacity="1" fill-rule="nonzero"/><path fill="#f6f7fc" d="M 274.503906 211.730469 L 100.496094 211.730469 L 100.496094 200.59375 C 100.496094 200.59375 104.570312 201.34375 117.761719 187.21875 C 135.015625 168.742188 165.984375 92.570312 187.566406 92.570312 C 210.179688 92.570312 241.78125 173.292969 260.320312 190.425781 C 276.824219 205.671875 274.503906 200.589844 274.503906 200.589844 L 274.503906 211.730469 " fill-opacity="1" fill-rule="nonzero"/><path fill="#f6f7fc" d="M 231.113281 211.488281 L 144 211.488281 L 144 146.867188 C 144 146.867188 149.386719 135.996094 153.929688 128.332031 C 158.46875 120.671875 173.234375 93.085938 187.613281 93.191406 C 201.988281 93.292969 217.898438 122.269531 221.074219 127.949219 C 224.25 133.628906 231.113281 145.910156 231.113281 145.910156 L 231.113281 211.488281 " fill-opacity="1" fill-rule="nonzero"/><g clip-path="url(#0ee62714f9)"><path stroke-linecap="round" transform="matrix(0.00906728, 0, 0, -0.00909553, 37.500002, 212.430879)" fill="none" stroke-linejoin="round" d="M 21340.902012 77.006006 L 11733.03715 77.006006 L 11733.03715 7181.718398 C 11733.03715 7181.718398 12327.120444 8376.931757 12828.149358 9219.121263 C 13329.178272 10061.310769 14957.629944 13094.653188 16543.000883 13083.057514 C 18128.80263 13071.46184 19883.480846 9886.087251 20233.727198 9261.638734 C 20583.542742 8636.760748 21340.902012 7286.508933 21340.902012 7286.508933 Z M 21340.902012 77.006006 " stroke="#ffffff" stroke-width="144.834" stroke-opacity="1" stroke-miterlimit="10"/></g><g clip-path="url(#aa5a387b05)"><path stroke-linecap="round" transform="matrix(0.00906728, 0, 0, -0.00909553, 37.500002, 212.430879)" fill="none" stroke-linejoin="round" d="M 16543.000883 77.006006 L 16543.000883 13083.057514 " stroke="#ffffff" stroke-width="144.834" stroke-opacity="1" stroke-miterlimit="10"/></g><g clip-path="url(#4257a95448)"><path stroke-linecap="round" transform="matrix(0.00906728, 0, 0, -0.00909553, 37.500002, 212.430879)" fill="none" stroke-linejoin="round" d="M 21340.902012 77.006006 L 21340.902012 7293.380444 " stroke="#ffffff" stroke-width="144.834" stroke-opacity="1" stroke-miterlimit="10"/></g><g clip-path="url(#4102cde951)"><path stroke-linecap="round" transform="matrix(0.00906728, 0, 0, -0.00909553, 37.500002, 212.430879)" fill="none" stroke-linejoin="round" d="M 26138.372333 77.006006 L 26138.372333 1278.661405 " stroke="#ffffff" stroke-width="144.834" stroke-opacity="1" stroke-miterlimit="10"/></g><g clip-path="url(#2f5caeed8a)"><path stroke-linecap="round" transform="matrix(0.00906728, 0, 0, -0.00909553, 37.500002, 212.430879)" fill="none" stroke-linejoin="round" d="M 30974.184506 77.006006 L 30974.184506 460.092716 " stroke="#ffffff" stroke-width="144.834" stroke-opacity="1" stroke-miterlimit="10"/></g><g clip-path="url(#de5474a39d)"><path stroke-linecap="round" transform="matrix(0.00906728, 0, 0, -0.00909553, 37.500002, 212.430879)" fill="none" stroke-linejoin="round" d="M 11745.099754 77.006006 L 11745.099754 153.45156 " stroke="#ffffff" stroke-width="115.142998" stroke-opacity="1" stroke-miterlimit="4"/></g><path fill="#ffffff" d="M 144.519531 206.933594 L 144.519531 205.566406 C 144.519531 205.421875 144.46875 205.296875 144.367188 205.195312 C 144.261719 205.09375 144.140625 205.042969 143.996094 205.042969 C 143.851562 205.042969 143.730469 205.09375 143.628906 205.195312 C 143.523438 205.296875 143.472656 205.421875 143.472656 205.566406 L 143.472656 206.933594 C 143.472656 207.078125 143.523438 207.203125 143.628906 207.304688 C 143.730469 207.40625 143.851562 207.457031 143.996094 207.457031 C 144.140625 207.457031 144.261719 207.40625 144.367188 207.304688 C 144.46875 207.203125 144.519531 207.078125 144.519531 206.933594 Z M 144.519531 201.464844 L 144.519531 200.097656 C 144.519531 199.953125 144.46875 199.832031 144.367188 199.730469 C 144.261719 199.625 144.140625 199.574219 143.996094 199.574219 C 143.851562 199.574219 143.730469 199.625 143.628906 199.730469 C 143.523438 199.832031 143.472656 199.953125 143.472656 200.097656 L 143.472656 201.464844 C 143.472656 201.609375 143.523438 201.734375 143.628906 201.835938 C 143.730469 201.9375 143.851562 201.988281 143.996094 201.988281 C 144.140625 201.988281 144.261719 201.9375 144.367188 201.835938 C 144.46875 201.734375 144.519531 201.609375 144.519531 201.464844 Z M 144.519531 196 L 144.519531 194.632812 C 144.519531 194.488281 144.46875 194.363281 144.367188 194.261719 C 144.261719 194.160156 144.140625 194.109375 143.996094 194.109375 C 143.851562 194.109375 143.730469 194.160156 143.628906 194.261719 C 143.523438 194.363281 143.472656 194.488281 143.472656 194.632812 L 143.472656 196 C 143.472656 196.144531 143.523438 196.265625 143.628906 196.367188 C 143.730469 196.472656 143.851562 196.523438 143.996094 196.523438 C 144.140625 196.523438 144.261719 196.472656 144.367188 196.367188 C 144.46875 196.265625 144.519531 196.144531 144.519531 196 Z M 144.519531 190.53125 L 144.519531 189.164062 C 144.519531 189.019531 144.46875 188.894531 144.367188 188.792969 C 144.261719 188.691406 144.140625 188.640625 143.996094 188.640625 C 143.851562 188.640625 143.730469 188.691406 143.628906 188.792969 C 143.523438 188.894531 143.472656 189.019531 143.472656 189.164062 L 143.472656 190.53125 C 143.472656 190.675781 143.523438 190.800781 143.628906 190.902344 C 143.730469 191.003906 143.851562 191.054688 143.996094 191.054688 C 144.140625 191.054688 144.261719 191.003906 144.367188 190.902344 C 144.46875 190.800781 144.519531 190.675781 144.519531 190.53125 Z M 144.519531 185.0625 L 144.519531 183.695312 C 144.519531 183.550781 144.46875 183.429688 144.367188 183.328125 C 144.261719 183.222656 144.140625 183.171875 143.996094 183.171875 C 143.851562 183.171875 143.730469 183.222656 143.628906 183.328125 C 143.523438 183.429688 143.472656 183.550781 143.472656 183.695312 L 143.472656 185.0625 C 143.472656 185.207031 143.523438 185.332031 143.628906 185.433594 C 143.730469 185.535156 143.851562 185.585938 143.996094 185.585938 C 144.140625 185.585938 144.261719 185.535156 144.367188 185.433594 C 144.46875 185.332031 144.519531 185.207031 144.519531 185.0625 Z M 144.519531 179.597656 L 144.519531 178.230469 C 144.519531 178.085938 144.46875 177.960938 144.367188 177.859375 C 144.261719 177.757812 144.140625 177.707031 143.996094 177.707031 C 143.851562 177.707031 143.730469 177.757812 143.628906 177.859375 C 143.523438 177.960938 143.472656 178.085938 143.472656 178.230469 L 143.472656 179.597656 C 143.472656 179.742188 143.523438 179.863281 143.628906 179.96875 C 143.730469 180.070312 143.851562 180.121094 143.996094 180.121094 C 144.140625 180.121094 144.261719 180.070312 144.367188 179.96875 C 144.46875 179.863281 144.519531 179.742188 144.519531 179.597656 Z M 144.519531 174.128906 L 144.519531 172.761719 C 144.519531 172.617188 144.46875 172.496094 144.367188 172.390625 C 144.261719 172.289062 144.140625 172.238281 143.996094 172.238281 C 143.851562 172.238281 143.730469 172.289062 143.628906 172.390625 C 143.523438 172.496094 143.472656 172.617188 143.472656 172.761719 L 143.472656 174.128906 C 143.472656 174.273438 143.523438 174.398438 143.628906 174.5 C 143.730469 174.601562 143.851562 174.652344 143.996094 174.652344 C 144.140625 174.652344 144.261719 174.601562 144.367188 174.5 C 144.46875 174.398438 144.519531 174.273438 144.519531 174.128906 Z M 144.519531 168.660156 L 144.519531 167.292969 C 144.519531 167.148438 144.46875 167.027344 144.367188 166.925781 C 144.261719 166.824219 144.140625 166.769531 143.996094 166.769531 C 143.851562 166.769531 143.730469 166.824219 143.628906 166.925781 C 143.523438 167.027344 143.472656 167.148438 143.472656 167.292969 L 143.472656 168.660156 C 143.472656 168.804688 143.523438 168.929688 143.628906 169.03125 C 143.730469 169.132812 143.851562 169.183594 143.996094 169.183594 C 144.140625 169.183594 144.261719 169.132812 144.367188 169.03125 C 144.46875 168.929688 144.519531 168.804688 144.519531 168.660156 Z M 144.519531 163.195312 L 144.519531 161.828125 C 144.519531 161.683594 144.46875 161.558594 144.367188 161.457031 C 144.261719 161.355469 144.140625 161.304688 143.996094 161.304688 C 143.851562 161.304688 143.730469 161.355469 143.628906 161.457031 C 143.523438 161.558594 143.472656 161.683594 143.472656 161.828125 L 143.472656 163.195312 C 143.472656 163.339844 143.523438 163.460938 143.628906 163.566406 C 143.730469 163.667969 143.851562 163.71875 143.996094 163.71875 C 144.140625 163.71875 144.261719 163.667969 144.367188 163.566406 C 144.46875 163.460938 144.519531 163.339844 144.519531 163.195312 Z M 144.519531 157.726562 L 144.519531 156.359375 C 144.519531 156.214844 144.46875 156.09375 144.367188 155.988281 C 144.261719 155.886719 144.140625 155.835938 143.996094 155.835938 C 143.851562 155.835938 143.730469 155.886719 143.628906 155.988281 C 143.523438 156.09375 143.472656 156.214844 143.472656 156.359375 L 143.472656 157.726562 C 143.472656 157.871094 143.523438 157.996094 143.628906 158.097656 C 143.730469 158.199219 143.851562 158.25 143.996094 158.25 C 144.140625 158.25 144.261719 158.199219 144.367188 158.097656 C 144.46875 157.996094 144.519531 157.871094 144.519531 157.726562 Z M 144.519531 152.257812 L 144.519531 150.894531 C 144.519531 150.75 144.46875 150.625 144.367188 150.523438 C 144.261719 150.421875 144.140625 150.367188 143.996094 150.367188 C 143.851562 150.367188 143.730469 150.421875 143.628906 150.523438 C 143.523438 150.625 143.472656 150.75 143.472656 150.894531 L 143.472656 152.257812 C 143.472656 152.402344 143.523438 152.527344 143.628906 152.628906 C 143.730469 152.730469 143.851562 152.78125 143.996094 152.78125 C 144.140625 152.78125 144.261719 152.730469 144.367188 152.628906 C 144.46875 152.527344 144.519531 152.402344 144.519531 152.257812 Z M 144.519531 152.257812 " fill-opacity="1" fill-rule="nonzero"/><path stroke-linecap="round" transform="matrix(0.00906728, 0, 0, -0.00909553, 37.500002, 212.430879)" fill="none" stroke-linejoin="round" d="M 11745.099754 7216.50542 L 11745.099754 7293.380444 " stroke="#ffffff" stroke-width="115.142998" stroke-opacity="1" stroke-miterlimit="4"/><g clip-path="url(#2977d3d700)"><path stroke-linecap="round" transform="matrix(0.00906728, 0, 0, -0.00909553, 37.500002, 212.430879)" fill="none" stroke-linejoin="round" d="M 6947.629433 77.006006 L 6947.629433 1278.661405 " stroke="#ffffff" stroke-width="144.834" stroke-opacity="1" stroke-miterlimit="10"/></g><g clip-path="url(#ec48187ef1)"><path stroke-linecap="round" transform="matrix(0.00906728, 0, 0, -0.00909553, 37.500002, 212.430879)" fill="none" stroke-linejoin="round" d="M 2111.386453 77.006006 L 2111.386453 460.092716 " stroke="#ffffff" stroke-width="144.834" stroke-opacity="1" stroke-miterlimit="10"/></g><g clip-path="url(#c5bce12a02)"><path stroke-linecap="butt" transform="matrix(0.00906728, 0, 0, -0.00909553, 37.500002, 212.430879)" fill="none" stroke-linejoin="miter" d="M 16543.000883 13071.46184 C 18858.590231 13071.46184 20985.055165 7342.769426 23308.829852 3995.055402 C 24719.723826 1962.376701 25732.12103 1212.093647 27736.236685 808.392405 C 29011.857161 551.140231 31185.7109 454.509614 32525.09086 460.522186 " stroke="#db4c21" stroke-width="383.81" stroke-opacity="1" stroke-miterlimit="10"/></g><g clip-path="url(#e04f5bc1ac)"><path stroke-linecap="butt" transform="matrix(0.00906728, 0, 0, -0.00909553, 37.500002, 212.430879)" fill="none" stroke-linejoin="miter" d="M 16543.000883 13071.46184 C 14227.411535 13071.46184 12101.377409 7342.769426 9777.171914 3995.055402 C 8366.27794 1962.376701 7353.880736 1212.093647 5349.765081 808.392405 C 4074.144605 551.140231 1900.721673 454.509614 560.910907 460.522186 " stroke="#db4c21" stroke-width="383.81" stroke-opacity="1" stroke-miterlimit="10"/></g><g clip-path="url(#1e761641e5)"><path stroke-linecap="round" transform="matrix(0.00906728, 0, 0, -0.00909553, 37.500002, 212.430879)" fill="none" stroke-linejoin="round" d="M 76.683478 77.006006 L 16543.000883 77.006006 " stroke="#706f6f" stroke-width="153.524002" stroke-opacity="1" stroke-miterlimit="10"/></g><g clip-path="url(#fe5b5404ca)"><path stroke-linecap="round" transform="matrix(0.00906728, 0, 0, -0.00909553, 37.500002, 212.430879)" fill="none" stroke-linejoin="round" d="M 33009.318288 77.006006 L 16543.000883 77.006006 " stroke="#706f6f" stroke-width="153.524002" stroke-opacity="1" stroke-miterlimit="10"/></g><g fill="#404040" fill-opacity="1"><g transform="translate(79.244534, 275.859356)"><g><path d="M 21.109375 -14.34375 L 10.140625 -14.34375 L 6.828125 0 L 4.8125 0 L 13.890625 -39.203125 L 26.9375 -39.203125 C 32.351562 -39.203125 35.0625 -36.492188 35.0625 -31.078125 C 35.0625 -26.335938 33.851562 -22.363281 31.4375 -19.15625 C 29.03125 -15.945312 25.585938 -14.34375 21.109375 -14.34375 Z M 21.5625 -16.234375 C 25.289062 -16.234375 28.113281 -17.671875 30.03125 -20.546875 C 31.957031 -23.421875 32.921875 -26.929688 32.921875 -31.078125 C 32.921875 -33.171875 32.414062 -34.726562 31.40625 -35.75 C 30.40625 -36.78125 28.765625 -37.296875 26.484375 -37.296875 L 15.453125 -37.296875 L 10.578125 -16.234375 Z M 21.5625 -16.234375 "/></g></g></g><g fill="#404040" fill-opacity="1"><g transform="translate(114.060938, 275.859356)"><g><path d="M 4.25 -14.78125 L 4.25 -16.6875 L 21.453125 -16.6875 L 21.453125 -14.78125 Z M 4.25 -14.78125 "/></g></g></g><g fill="#404040" fill-opacity="1"><g transform="translate(143.905362, 275.859356)"><g><path d="M 22.34375 -1.6875 L 24.03125 -1.796875 L 24.140625 0 C 19.953125 0.332031 16.5 0.5 13.78125 0.5 C 9.820312 0.46875 7.078125 -0.726562 5.546875 -3.09375 C 4.015625 -5.46875 3.25 -9.101562 3.25 -14 C 3.25 -23.664062 7.019531 -28.5 14.5625 -28.5 C 18.101562 -28.5 20.757812 -27.4375 22.53125 -25.3125 C 24.3125 -23.1875 25.203125 -19.769531 25.203125 -15.0625 L 25.203125 -13.21875 L 5.3125 -13.21875 C 5.3125 -9.1875 5.945312 -6.1875 7.21875 -4.21875 C 8.488281 -2.257812 10.597656 -1.28125 13.546875 -1.28125 C 16.492188 -1.28125 19.425781 -1.414062 22.34375 -1.6875 Z M 5.3125 -15.015625 L 23.125 -15.015625 C 23.125 -19.234375 22.441406 -22.238281 21.078125 -24.03125 C 19.722656 -25.820312 17.550781 -26.71875 14.5625 -26.71875 C 8.394531 -26.71875 5.3125 -22.816406 5.3125 -15.015625 Z M 5.3125 -15.015625 "/></g></g></g><g fill="#404040" fill-opacity="1"><g transform="translate(176.213436, 275.859356)"><g><path d="M 12.4375 -26.71875 C 7.425781 -26.71875 4.921875 -24.847656 4.921875 -21.109375 C 4.921875 -19.359375 5.441406 -18.117188 6.484375 -17.390625 C 7.535156 -16.660156 9.851562 -16.015625 13.4375 -15.453125 C 17.019531 -14.890625 19.519531 -14.140625 20.9375 -13.203125 C 22.363281 -12.273438 23.078125 -10.398438 23.078125 -7.578125 C 23.078125 -4.765625 22.179688 -2.710938 20.390625 -1.421875 C 18.597656 -0.140625 15.945312 0.5 12.4375 0.5 C 10.53125 0.5 7.988281 0.273438 4.8125 -0.171875 L 3.1875 -0.390625 L 3.421875 -2.234375 C 7.453125 -1.597656 10.660156 -1.28125 13.046875 -1.28125 C 15.429688 -1.28125 17.351562 -1.75 18.8125 -2.6875 C 20.269531 -3.625 21 -5.210938 21 -7.453125 C 21 -9.691406 20.425781 -11.164062 19.28125 -11.875 C 18.144531 -12.582031 15.8125 -13.207031 12.28125 -13.75 C 8.757812 -14.289062 6.304688 -15.015625 4.921875 -15.921875 C 3.546875 -16.835938 2.859375 -18.378906 2.859375 -20.546875 C 2.859375 -22.710938 3.359375 -24.382812 4.359375 -25.5625 C 5.367188 -26.738281 6.546875 -27.519531 7.890625 -27.90625 C 9.234375 -28.300781 10.632812 -28.5 12.09375 -28.5 C 15.113281 -28.5 17.953125 -28.296875 20.609375 -27.890625 L 22.0625 -27.65625 L 21.953125 -25.8125 C 18.140625 -26.414062 14.96875 -26.71875 12.4375 -26.71875 Z M 12.4375 -26.71875 "/></g></g></g><g fill="#404040" fill-opacity="1"><g transform="translate(206.225834, 275.859356)"><g><path d="M 12.4375 -26.71875 C 7.425781 -26.71875 4.921875 -24.847656 4.921875 -21.109375 C 4.921875 -19.359375 5.441406 -18.117188 6.484375 -17.390625 C 7.535156 -16.660156 9.851562 -16.015625 13.4375 -15.453125 C 17.019531 -14.890625 19.519531 -14.140625 20.9375 -13.203125 C 22.363281 -12.273438 23.078125 -10.398438 23.078125 -7.578125 C 23.078125 -4.765625 22.179688 -2.710938 20.390625 -1.421875 C 18.597656 -0.140625 15.945312 0.5 12.4375 0.5 C 10.53125 0.5 7.988281 0.273438 4.8125 -0.171875 L 3.1875 -0.390625 L 3.421875 -2.234375 C 7.453125 -1.597656 10.660156 -1.28125 13.046875 -1.28125 C 15.429688 -1.28125 17.351562 -1.75 18.8125 -2.6875 C 20.269531 -3.625 21 -5.210938 21 -7.453125 C 21 -9.691406 20.425781 -11.164062 19.28125 -11.875 C 18.144531 -12.582031 15.8125 -13.207031 12.28125 -13.75 C 8.757812 -14.289062 6.304688 -15.015625 4.921875 -15.921875 C 3.546875 -16.835938 2.859375 -18.378906 2.859375 -20.546875 C 2.859375 -22.710938 3.359375 -24.382812 4.359375 -25.5625 C 5.367188 -26.738281 6.546875 -27.519531 7.890625 -27.90625 C 9.234375 -28.300781 10.632812 -28.5 12.09375 -28.5 C 15.113281 -28.5 17.953125 -28.296875 20.609375 -27.890625 L 22.0625 -27.65625 L 21.953125 -25.8125 C 18.140625 -26.414062 14.96875 -26.71875 12.4375 -26.71875 Z M 12.4375 -26.71875 "/></g></g></g><g fill="#404040" fill-opacity="1"><g transform="translate(236.238238, 275.859356)"><g><path d="M 4.421875 0 L 4.421875 -28 L 6.390625 -28 L 6.390625 0 Z M 4.421875 -36.125 L 4.421875 -39.203125 L 6.390625 -39.203125 L 6.390625 -36.125 Z M 4.421875 -36.125 "/></g></g></g><g fill="#404040" fill-opacity="1"><g transform="translate(251.244737, 275.859356)"><g><path d="M 6.390625 0 L 4.421875 0 L 4.421875 -28 L 6.390625 -28 L 6.390625 -25.765625 C 9.710938 -27.585938 13.109375 -28.5 16.578125 -28.5 C 20.046875 -28.5 22.378906 -27.554688 23.578125 -25.671875 C 24.773438 -23.785156 25.375 -20.082031 25.375 -14.5625 L 25.375 0 L 23.40625 0 L 23.40625 -14.453125 C 23.40625 -19.378906 22.957031 -22.65625 22.0625 -24.28125 C 21.164062 -25.90625 19.207031 -26.71875 16.1875 -26.71875 C 14.6875 -26.71875 13.125 -26.484375 11.5 -26.015625 C 9.882812 -25.546875 8.628906 -25.085938 7.734375 -24.640625 L 6.390625 -23.90625 Z M 6.390625 0 "/></g></g></g><g fill="#404040" fill-opacity="1"><g transform="translate(284.952621, 275.859356)"><g><path d="M 4.421875 0 L 4.421875 -28 L 6.390625 -28 L 6.390625 0 Z M 4.421875 -36.125 L 4.421875 -39.203125 L 6.390625 -39.203125 L 6.390625 -36.125 Z M 4.421875 -36.125 "/></g></g></g></svg>