<svg xmlns="http://www.w3.org/2000/svg" xmlns:xlink="http://www.w3.org/1999/xlink" width="500" zoomAndPan="magnify" viewBox="0 0 375 374.999991" height="500" preserveAspectRatio="xMidYMid meet" version="1.0"><defs><filter x="0%" y="0%" width="100%" height="100%" id="a47826f0ee"><feColorMatrix values="0 0 0 0 1 0 0 0 0 1 0 0 0 0 1 0 0 0 1 0" color-interpolation-filters="sRGB"/></filter><g/><mask id="1f9257ad96"><g filter="url(#a47826f0ee)"><rect x="-37.5" width="450" fill="#000000" y="-37.499999" height="449.999989" fill-opacity="0.898"/></g></mask><clipPath id="25dd224d22"><path d="M 132 20 L 243 20 L 243 170.390625 L 132 170.390625 Z M 132 20 " clip-rule="nonzero"/></clipPath><clipPath id="751b9a7faa"><path d="M 186 20 L 189 20 L 189 170.390625 L 186 170.390625 Z M 186 20 " clip-rule="nonzero"/></clipPath><clipPath id="bcb32c2d18"><path d="M 241 86 L 243 86 L 243 170.390625 L 241 170.390625 Z M 241 86 " clip-rule="nonzero"/></clipPath><clipPath id="0c5e695f54"><path d="M 295 154 L 298 154 L 298 170.390625 L 295 170.390625 Z M 295 154 " clip-rule="nonzero"/></clipPath><clipPath id="162e6da7dd"><path d="M 350 164 L 352 164 L 352 170.390625 L 350 170.390625 Z M 350 164 " clip-rule="nonzero"/></clipPath><clipPath id="937fed7647"><path d="M 132 167 L 134 167 L 134 170.390625 L 132 170.390625 Z M 132 167 " clip-rule="nonzero"/></clipPath><clipPath id="aacbab7a80"><path d="M 77 154 L 80 154 L 80 170.390625 L 77 170.390625 Z M 77 154 " clip-rule="nonzero"/></clipPath><clipPath id="95aa136565"><path d="M 23 164 L 25 164 L 25 170.390625 L 23 170.390625 Z M 23 164 " clip-rule="nonzero"/></clipPath><clipPath id="6ed81451dc"><path d="M 125.921875 19.714844 L 375 19.714844 L 375 170.324219 L 125.921875 170.324219 Z M 125.921875 19.714844 " clip-rule="nonzero"/></clipPath><clipPath id="339389334e"><path d="M 0 19.714844 L 249.125 19.714844 L 249.125 170.324219 L 0 170.324219 Z M 0 19.714844 " clip-rule="nonzero"/></clipPath><clipPath id="0ad29c7eef"><path d="M 0 168.46875 L 188.371094 168.46875 L 188.371094 170.324219 L 0 170.324219 Z M 0 168.46875 " clip-rule="nonzero"/></clipPath><clipPath id="2dc41a6bf0"><path d="M 186.558594 168.46875 L 375 168.46875 L 375 170.324219 L 186.558594 170.324219 Z M 186.558594 168.46875 " clip-rule="nonzero"/></clipPath><clipPath id="b94d55a8c8"><rect x="0" width="375" y="0" height="187"/></clipPath><clipPath id="7d7873a907"><path d="M 35 245 L 82 245 L 82 312 L 35 312 Z M 35 245 " clip-rule="nonzero"/></clipPath><clipPath id="8aecb21eb3"><path d="M 41.324219 244.109375 L 83.90625 247.894531 L 77.925781 315.132812 L 35.34375 311.34375 Z M 41.324219 244.109375 " clip-rule="nonzero"/></clipPath><clipPath id="b7eb004db9"><path d="M 41.324219 244.109375 L 83.90625 247.894531 L 77.925781 315.132812 L 35.34375 311.34375 Z M 41.324219 244.109375 " clip-rule="nonzero"/></clipPath></defs><g mask="url(#1f9257ad96)"><g transform="matrix(1, 0, 0, 1, 0, 42)"><g clip-path="url(#b94d55a8c8)"><path fill="#e1c1c1" d="M 350.574219 169.453125 L 24.425781 169.453125 L 24.425781 164.753906 C 24.425781 164.753906 56.898438 165.097656 78.746094 156.472656 C 90.621094 151.128906 280.886719 151.171875 296.253906 156.472656 C 318.054688 166.335938 350.574219 164.753906 350.574219 164.753906 L 350.574219 169.453125 " fill-opacity="1" fill-rule="nonzero"/><path fill="#f6f7fc" d="M 296.253906 169.453125 L 78.746094 169.453125 L 78.746094 155.542969 C 78.746094 155.542969 83.835938 156.484375 100.328125 138.847656 C 121.894531 115.78125 160.605469 20.6875 187.585938 20.6875 C 215.851562 20.6875 255.351562 121.464844 278.527344 142.851562 C 299.152344 161.886719 296.253906 155.542969 296.253906 155.542969 L 296.253906 169.453125 " fill-opacity="1" fill-rule="nonzero"/><path fill="#f6f7fc" d="M 242.015625 169.148438 L 133.125 169.148438 L 133.125 88.46875 C 133.125 88.46875 139.859375 74.898438 145.535156 65.332031 C 151.210938 55.769531 169.667969 21.328125 187.640625 21.460938 C 205.609375 21.589844 225.5 57.761719 229.46875 64.851562 C 233.4375 71.945312 242.015625 87.277344 242.015625 87.277344 L 242.015625 169.148438 " fill-opacity="1" fill-rule="nonzero"/><g clip-path="url(#25dd224d22)"><path stroke-linecap="round" transform="matrix(0.0113341, 0, 0, -0.0113553, 0.0000045, 170.323858)" fill="none" stroke-linejoin="round" d="M 21340.815904 76.680871 L 11733.123263 76.680871 L 11733.123263 7181.715694 C 11733.123263 7181.715694 12327.292726 8377.125591 12828.06316 9219.244563 C 13328.833595 10061.363535 14957.62993 13094.436646 16543.000886 13083.084553 C 18128.716488 13071.732459 19883.308562 9886.266086 20233.468755 9261.556914 C 20583.628949 8636.847742 21340.815904 7286.636563 21340.815904 7286.636563 Z M 21340.815904 76.680871 " stroke="#ffffff" stroke-width="144.834" stroke-opacity="1" stroke-miterlimit="10"/></g><g clip-path="url(#751b9a7faa)"><path stroke-linecap="round" transform="matrix(0.0113341, 0, 0, -0.0113553, 0.0000045, 170.323858)" fill="none" stroke-linejoin="round" d="M 16543.000886 76.680871 L 16543.000886 13083.084553 " stroke="#ffffff" stroke-width="144.834" stroke-opacity="1" stroke-miterlimit="10"/></g><g clip-path="url(#bcb32c2d18)"><path stroke-linecap="round" transform="matrix(0.0113341, 0, 0, -0.0113553, 0.0000045, 170.323858)" fill="none" stroke-linejoin="round" d="M 21340.815904 76.680871 L 21340.815904 7293.172617 " stroke="#ffffff" stroke-width="144.834" stroke-opacity="1" stroke-miterlimit="10"/></g><g clip-path="url(#0c5e695f54)"><path stroke-linecap="round" transform="matrix(0.0113341, 0, 0, -0.0113553, 0.0000045, 170.323858)" fill="none" stroke-linejoin="round" d="M 26138.286276 76.680871 L 26138.286276 1278.626822 " stroke="#ffffff" stroke-width="144.834" stroke-opacity="1" stroke-miterlimit="10"/></g><g clip-path="url(#162e6da7dd)"><path stroke-linecap="round" transform="matrix(0.0113341, 0, 0, -0.0113553, 0.0000045, 170.323858)" fill="none" stroke-linejoin="round" d="M 30974.356984 76.680871 L 30974.356984 460.244046 " stroke="#ffffff" stroke-width="144.834" stroke-opacity="1" stroke-miterlimit="10"/></g><g clip-path="url(#937fed7647)"><path stroke-linecap="round" transform="matrix(0.0113341, 0, 0, -0.0113553, 0.0000045, 170.323858)" fill="none" stroke-linejoin="round" d="M 11745.185868 76.680871 L 11745.185868 153.393506 " stroke="#ffffff" stroke-width="115.142998" stroke-opacity="1" stroke-miterlimit="4"/></g><path fill="#ffffff" d="M 133.773438 163.460938 L 133.773438 161.753906 C 133.773438 161.574219 133.710938 161.417969 133.582031 161.292969 C 133.453125 161.164062 133.300781 161.101562 133.121094 161.101562 C 132.941406 161.101562 132.785156 161.164062 132.660156 161.292969 C 132.53125 161.417969 132.46875 161.574219 132.46875 161.753906 L 132.46875 163.460938 C 132.46875 163.640625 132.53125 163.796875 132.660156 163.921875 C 132.785156 164.050781 132.941406 164.113281 133.121094 164.113281 C 133.300781 164.113281 133.453125 164.050781 133.582031 163.921875 C 133.710938 163.796875 133.773438 163.640625 133.773438 163.460938 Z M 133.773438 156.636719 L 133.773438 154.929688 C 133.773438 154.746094 133.710938 154.59375 133.582031 154.464844 C 133.453125 154.339844 133.300781 154.273438 133.121094 154.273438 C 132.941406 154.273438 132.785156 154.339844 132.660156 154.464844 C 132.53125 154.59375 132.46875 154.746094 132.46875 154.929688 L 132.46875 156.636719 C 132.46875 156.816406 132.53125 156.96875 132.660156 157.097656 C 132.785156 157.226562 132.941406 157.289062 133.121094 157.289062 C 133.300781 157.289062 133.453125 157.226562 133.582031 157.097656 C 133.710938 156.96875 133.773438 156.816406 133.773438 156.636719 Z M 133.773438 149.808594 L 133.773438 148.101562 C 133.773438 147.921875 133.710938 147.769531 133.582031 147.640625 C 133.453125 147.511719 133.300781 147.449219 133.121094 147.449219 C 132.941406 147.449219 132.785156 147.511719 132.660156 147.640625 C 132.53125 147.769531 132.46875 147.921875 132.46875 148.101562 L 132.46875 149.808594 C 132.46875 149.988281 132.53125 150.144531 132.660156 150.269531 C 132.785156 150.398438 132.941406 150.464844 133.121094 150.464844 C 133.300781 150.464844 133.453125 150.398438 133.582031 150.269531 C 133.710938 150.144531 133.773438 149.988281 133.773438 149.808594 Z M 133.773438 142.984375 L 133.773438 141.277344 C 133.773438 141.097656 133.710938 140.941406 133.582031 140.816406 C 133.453125 140.6875 133.300781 140.625 133.121094 140.625 C 132.941406 140.625 132.785156 140.6875 132.660156 140.816406 C 132.53125 140.941406 132.46875 141.097656 132.46875 141.277344 L 132.46875 142.984375 C 132.46875 143.164062 132.53125 143.316406 132.660156 143.445312 C 132.785156 143.574219 132.941406 143.636719 133.121094 143.636719 C 133.300781 143.636719 133.453125 143.574219 133.582031 143.445312 C 133.710938 143.316406 133.773438 143.164062 133.773438 142.984375 Z M 133.773438 136.15625 L 133.773438 134.453125 C 133.773438 134.269531 133.710938 134.117188 133.582031 133.988281 C 133.453125 133.863281 133.300781 133.796875 133.121094 133.796875 C 132.941406 133.796875 132.785156 133.863281 132.660156 133.988281 C 132.53125 134.117188 132.46875 134.269531 132.46875 134.453125 L 132.46875 136.15625 C 132.46875 136.339844 132.53125 136.492188 132.660156 136.621094 C 132.785156 136.746094 132.941406 136.8125 133.121094 136.8125 C 133.300781 136.8125 133.453125 136.746094 133.582031 136.621094 C 133.710938 136.492188 133.773438 136.339844 133.773438 136.15625 Z M 133.773438 129.332031 L 133.773438 127.625 C 133.773438 127.445312 133.710938 127.289062 133.582031 127.164062 C 133.453125 127.035156 133.300781 126.972656 133.121094 126.972656 C 132.941406 126.972656 132.785156 127.035156 132.660156 127.164062 C 132.53125 127.289062 132.46875 127.445312 132.46875 127.625 L 132.46875 129.332031 C 132.46875 129.511719 132.53125 129.667969 132.660156 129.792969 C 132.785156 129.921875 132.941406 129.984375 133.121094 129.984375 C 133.300781 129.984375 133.453125 129.921875 133.582031 129.792969 C 133.710938 129.667969 133.773438 129.511719 133.773438 129.332031 Z M 133.773438 122.507812 L 133.773438 120.800781 C 133.773438 120.621094 133.710938 120.464844 133.582031 120.335938 C 133.453125 120.210938 133.300781 120.144531 133.121094 120.144531 C 132.941406 120.144531 132.785156 120.210938 132.660156 120.335938 C 132.53125 120.464844 132.46875 120.621094 132.46875 120.800781 L 132.46875 122.507812 C 132.46875 122.6875 132.53125 122.839844 132.660156 122.96875 C 132.785156 123.097656 132.941406 123.160156 133.121094 123.160156 C 133.300781 123.160156 133.453125 123.097656 133.582031 122.96875 C 133.710938 122.839844 133.773438 122.6875 133.773438 122.507812 Z M 133.773438 115.679688 L 133.773438 113.972656 C 133.773438 113.792969 133.710938 113.640625 133.582031 113.511719 C 133.453125 113.382812 133.300781 113.320312 133.121094 113.320312 C 132.941406 113.320312 132.785156 113.382812 132.660156 113.511719 C 132.53125 113.640625 132.46875 113.792969 132.46875 113.972656 L 132.46875 115.679688 C 132.46875 115.859375 132.53125 116.015625 132.660156 116.144531 C 132.785156 116.269531 132.941406 116.335938 133.121094 116.335938 C 133.300781 116.335938 133.453125 116.269531 133.582031 116.144531 C 133.710938 116.015625 133.773438 115.859375 133.773438 115.679688 Z M 133.773438 108.855469 L 133.773438 107.148438 C 133.773438 106.96875 133.710938 106.8125 133.582031 106.6875 C 133.453125 106.558594 133.300781 106.496094 133.121094 106.496094 C 132.941406 106.496094 132.785156 106.558594 132.660156 106.6875 C 132.53125 106.8125 132.46875 106.96875 132.46875 107.148438 L 132.46875 108.855469 C 132.46875 109.035156 132.53125 109.1875 132.660156 109.316406 C 132.785156 109.445312 132.941406 109.507812 133.121094 109.507812 C 133.300781 109.507812 133.453125 109.445312 133.582031 109.316406 C 133.710938 109.1875 133.773438 109.035156 133.773438 108.855469 Z M 133.773438 102.027344 L 133.773438 100.324219 C 133.773438 100.140625 133.710938 99.988281 133.582031 99.859375 C 133.453125 99.734375 133.300781 99.667969 133.121094 99.667969 C 132.941406 99.667969 132.785156 99.734375 132.660156 99.859375 C 132.53125 99.988281 132.46875 100.140625 132.46875 100.324219 L 132.46875 102.027344 C 132.46875 102.210938 132.53125 102.363281 132.660156 102.492188 C 132.785156 102.617188 132.941406 102.683594 133.121094 102.683594 C 133.300781 102.683594 133.453125 102.617188 133.582031 102.492188 C 133.710938 102.363281 133.773438 102.210938 133.773438 102.027344 Z M 133.773438 95.203125 L 133.773438 93.496094 C 133.773438 93.316406 133.710938 93.160156 133.582031 93.035156 C 133.453125 92.90625 133.300781 92.84375 133.121094 92.84375 C 132.941406 92.84375 132.785156 92.90625 132.660156 93.035156 C 132.53125 93.160156 132.46875 93.316406 132.46875 93.496094 L 132.46875 95.203125 C 132.46875 95.382812 132.53125 95.539062 132.660156 95.664062 C 132.785156 95.792969 132.941406 95.855469 133.121094 95.855469 C 133.300781 95.855469 133.453125 95.792969 133.582031 95.664062 C 133.710938 95.539062 133.773438 95.382812 133.773438 95.203125 Z M 133.773438 95.203125 " fill-opacity="1" fill-rule="nonzero"/><path stroke-linecap="round" transform="matrix(0.0113341, 0, 0, -0.0113553, 0.0000045, 170.323858)" fill="none" stroke-linejoin="round" d="M 11745.185868 7216.459982 L 11745.185868 7293.172617 " stroke="#ffffff" stroke-width="115.142998" stroke-opacity="1" stroke-miterlimit="4"/><g clip-path="url(#aacbab7a80)"><path stroke-linecap="round" transform="matrix(0.0113341, 0, 0, -0.0113553, 0.0000045, 170.323858)" fill="none" stroke-linejoin="round" d="M 6947.37085 76.680871 L 6947.37085 1278.626822 " stroke="#ffffff" stroke-width="144.834" stroke-opacity="1" stroke-miterlimit="10"/></g><g clip-path="url(#95aa136565)"><path stroke-linecap="round" transform="matrix(0.0113341, 0, 0, -0.0113553, 0.0000045, 170.323858)" fill="none" stroke-linejoin="round" d="M 2111.300142 76.680871 L 2111.300142 460.244046 " stroke="#ffffff" stroke-width="144.834" stroke-opacity="1" stroke-miterlimit="10"/></g><g clip-path="url(#6ed81451dc)"><path stroke-linecap="butt" transform="matrix(0.0113341, 0, 0, -0.0113553, 0.0000045, 170.323844)" fill="none" stroke-linejoin="miter" d="M 16543.000886 13071.73119 C 18858.67642 13071.73119 20984.79673 7342.707759 23308.743765 3994.872042 C 24719.723916 1962.159213 25732.293453 1211.889001 27736.409129 808.029658 C 29011.943457 551.05953 31185.624896 454.39473 32525.263354 460.586781 " stroke="#db4c21" stroke-width="383.81" stroke-opacity="1" stroke-miterlimit="10"/></g><g clip-path="url(#339389334e)"><path stroke-linecap="butt" transform="matrix(0.0113341, 0, 0, -0.0113553, 0.0000045, 170.323844)" fill="none" stroke-linejoin="miter" d="M 16543.000886 13071.73119 C 14227.325352 13071.73119 12101.205041 7342.707759 9777.258007 3994.872042 C 8366.277856 1962.159213 7354.052965 1211.889001 5349.592643 808.029658 C 4074.058315 551.05953 1900.376875 454.39473 561.083063 460.586781 " stroke="#db4c21" stroke-width="383.81" stroke-opacity="1" stroke-miterlimit="10"/></g><g clip-path="url(#0ad29c7eef)"><path stroke-linecap="round" transform="matrix(0.0113341, 0, 0, -0.0113553, 0.0000045, 170.323844)" fill="none" stroke-linejoin="round" d="M 76.85563 76.679603 L 16543.000886 76.679603 " stroke="#706f6f" stroke-width="153.524002" stroke-opacity="1" stroke-miterlimit="10"/></g><g clip-path="url(#2dc41a6bf0)"><path stroke-linecap="round" transform="matrix(0.0113341, 0, 0, -0.0113553, 0.0000045, 170.323844)" fill="none" stroke-linejoin="round" d="M 33009.146142 76.679603 L 16543.000886 76.679603 " stroke="#706f6f" stroke-width="153.524002" stroke-opacity="1" stroke-miterlimit="10"/></g></g></g></g><g clip-path="url(#7d7873a907)"><g clip-path="url(#8aecb21eb3)"><g clip-path="url(#b7eb004db9)"><path fill="#575264" d="M 70.925781 248.910156 C 68.367188 247.261719 65.570312 246.292969 62.613281 246.027344 C 59.65625 245.765625 56.730469 246.226562 53.917969 247.398438 C 51.257812 248.503906 48.816406 250.199219 46.660156 252.433594 C 42.34375 256.914062 39.632812 263.101562 39.03125 269.863281 L 35.347656 311.308594 L 40.902344 311.804688 L 43.042969 287.707031 C 43.179688 287.929688 43.320312 288.148438 43.464844 288.363281 C 45.191406 290.941406 47.296875 293.042969 49.71875 294.601562 C 52.28125 296.25 55.078125 297.21875 58.035156 297.484375 C 60.992188 297.746094 63.917969 297.285156 66.730469 296.117188 C 69.390625 295.007812 71.832031 293.3125 73.984375 291.078125 C 78.304688 286.597656 81.011719 280.410156 81.613281 273.648438 C 82.214844 266.890625 80.640625 260.320312 77.179688 255.148438 C 75.457031 252.570312 73.351562 250.46875 70.925781 248.910156 Z M 69.953125 287.25 C 66.667969 290.65625 62.609375 292.332031 58.527344 291.96875 C 54.441406 291.605469 50.742188 289.238281 48.109375 285.304688 C 45.347656 281.175781 44.097656 275.867188 44.585938 270.355469 C 45.078125 264.84375 47.246094 259.839844 50.691406 256.261719 C 53.976562 252.855469 58.039062 251.179688 62.121094 251.542969 C 66.207031 251.90625 69.90625 254.273438 72.539062 258.207031 C 75.300781 262.335938 76.550781 267.644531 76.0625 273.15625 C 75.570312 278.667969 73.402344 283.671875 69.953125 287.25 Z M 69.953125 287.25 " fill-opacity="1" fill-rule="nonzero"/></g></g></g><g fill="#463f57" fill-opacity="1"><g transform="translate(90.432295, 293.859355)"><g><path d="M 3.058594 -20.484375 L 25.839844 -20.484375 L 25.839844 -22.863281 L 3.058594 -22.863281 Z M 3.058594 -20.484375 "/></g></g></g><g fill="#463f57" fill-opacity="1"><g transform="translate(125.705976, 293.859355)"><g><path d="M 22.015625 0.933594 C 32.214844 0.933594 37.910156 -5.101562 39.777344 -13.089844 L 37.230469 -13.089844 C 36.207031 -8.414062 32.128906 -1.273438 22.015625 -1.273438 C 11.558594 -1.273438 4.761719 -9.007812 4.761719 -22.097656 L 40.375 -22.097656 C 40.375 -34.847656 34.59375 -44.285156 21.929688 -44.285156 C 10.199219 -44.285156 2.210938 -35.867188 2.210938 -21.675781 C 2.210938 -8.074219 9.859375 0.933594 22.015625 0.933594 Z M 4.761719 -24.308594 C 5.015625 -33.574219 11.132812 -42.074219 21.929688 -42.074219 C 32.894531 -42.074219 37.824219 -33.0625 37.824219 -24.308594 Z M 4.761719 -24.308594 "/></g></g></g><g fill="#463f57" fill-opacity="1"><g transform="translate(174.494042, 293.859355)"><g><path d="M 20.3125 0.933594 C 29.664062 0.933594 35.785156 -4.078125 35.785156 -11.390625 C 35.785156 -19.71875 29.75 -21.757812 20.398438 -24.140625 C 12.410156 -26.179688 5.78125 -27.539062 5.78125 -33.402344 C 5.78125 -39.523438 12.15625 -42.074219 18.273438 -42.074219 C 26.945312 -42.074219 30.769531 -36.972656 31.703125 -32.042969 L 34.253906 -32.042969 C 33.320312 -38.078125 28.984375 -44.285156 18.273438 -44.285156 C 8.925781 -44.285156 3.230469 -39.949219 3.230469 -33.402344 C 3.230469 -26.09375 9.433594 -24.5625 18.273438 -22.183594 C 26.179688 -20.058594 33.234375 -19.210938 33.234375 -10.964844 C 33.234375 -5.441406 27.371094 -1.273438 20.3125 -1.273438 C 10.113281 -1.273438 4.675781 -6.460938 4.25 -13.597656 L 1.699219 -13.597656 C 2.125 -5.355469 7.90625 0.933594 20.3125 0.933594 Z M 20.3125 0.933594 "/></g></g></g><g fill="#463f57" fill-opacity="1"><g transform="translate(218.607328, 293.859355)"><g><path d="M 20.3125 0.933594 C 29.664062 0.933594 35.785156 -4.078125 35.785156 -11.390625 C 35.785156 -19.71875 29.75 -21.757812 20.398438 -24.140625 C 12.410156 -26.179688 5.78125 -27.539062 5.78125 -33.402344 C 5.78125 -39.523438 12.15625 -42.074219 18.273438 -42.074219 C 26.945312 -42.074219 30.769531 -36.972656 31.703125 -32.042969 L 34.253906 -32.042969 C 33.320312 -38.078125 28.984375 -44.285156 18.273438 -44.285156 C 8.925781 -44.285156 3.230469 -39.949219 3.230469 -33.402344 C 3.230469 -26.09375 9.433594 -24.5625 18.273438 -22.183594 C 26.179688 -20.058594 33.234375 -19.210938 33.234375 -10.964844 C 33.234375 -5.441406 27.371094 -1.273438 20.3125 -1.273438 C 10.113281 -1.273438 4.675781 -6.460938 4.25 -13.597656 L 1.699219 -13.597656 C 2.125 -5.355469 7.90625 0.933594 20.3125 0.933594 Z M 20.3125 0.933594 "/></g></g></g><g fill="#463f57" fill-opacity="1"><g transform="translate(262.720614, 293.859355)"><g><path d="M 6.714844 -54.144531 C 7.734375 -54.144531 8.839844 -54.910156 8.839844 -56.183594 C 8.839844 -57.542969 7.734375 -58.222656 6.714844 -58.222656 C 5.78125 -58.222656 4.589844 -57.542969 4.589844 -56.183594 C 4.589844 -54.910156 5.78125 -54.144531 6.714844 -54.144531 Z M 5.441406 0 L 7.988281 0 L 7.988281 -43.6875 L 5.441406 -43.6875 Z M 5.441406 0 "/></g></g></g><g fill="#463f57" fill-opacity="1"><g transform="translate(282.52498, 293.859355)"><g><path d="M 4.503906 0 L 7.054688 0 L 7.054688 -30.089844 C 7.054688 -34.765625 12.75 -42.074219 22.4375 -42.074219 C 32.042969 -42.074219 34.167969 -36.039062 34.167969 -29.578125 L 34.167969 0 L 36.71875 0 L 36.71875 -31.277344 C 36.71875 -39.863281 30.429688 -44.285156 23.628906 -44.285156 C 14.449219 -44.285156 9.945312 -39.949219 7.226562 -35.785156 L 7.054688 -35.785156 L 7.054688 -43.6875 L 4.503906 -43.6875 Z M 4.503906 0 "/></g></g></g><g fill="#463f57" fill-opacity="1"><g transform="translate(329.868109, 293.859355)"><g><path d="M 6.714844 -54.144531 C 7.734375 -54.144531 8.839844 -54.910156 8.839844 -56.183594 C 8.839844 -57.542969 7.734375 -58.222656 6.714844 -58.222656 C 5.78125 -58.222656 4.589844 -57.542969 4.589844 -56.183594 C 4.589844 -54.910156 5.78125 -54.144531 6.714844 -54.144531 Z M 5.441406 0 L 7.988281 0 L 7.988281 -43.6875 L 5.441406 -43.6875 Z M 5.441406 0 "/></g></g></g></svg>