<svg xmlns="http://www.w3.org/2000/svg" xmlns:xlink="http://www.w3.org/1999/xlink" width="500" zoomAndPan="magnify" viewBox="0 0 375 374.999991" height="500" preserveAspectRatio="xMidYMid meet" version="1.0"><defs><g/><clipPath id="45804bd316"><path d="M 143 92 L 232 92 L 232 212.484375 L 143 212.484375 Z M 143 92 " clip-rule="nonzero"/></clipPath><clipPath id="bc39f3bdd9"><path d="M 186 92 L 189 92 L 189 212.484375 L 186 212.484375 Z M 186 92 " clip-rule="nonzero"/></clipPath><clipPath id="a956b483a1"><path d="M 230 145 L 232 145 L 232 212.484375 L 230 212.484375 Z M 230 145 " clip-rule="nonzero"/></clipPath><clipPath id="5f839ef0cb"><path d="M 273 200 L 276 200 L 276 212.484375 L 273 212.484375 Z M 273 200 " clip-rule="nonzero"/></clipPath><clipPath id="78dda58937"><path d="M 317 207 L 320 207 L 320 212.484375 L 317 212.484375 Z M 317 207 " clip-rule="nonzero"/></clipPath><clipPath id="a80c2b9041"><path d="M 143 210 L 145 210 L 145 212.484375 L 143 212.484375 Z M 143 210 " clip-rule="nonzero"/></clipPath><clipPath id="a4228560c9"><path d="M 99 200 L 102 200 L 102 212.484375 L 99 212.484375 Z M 99 200 " clip-rule="nonzero"/></clipPath><clipPath id="7df2a475c9"><path d="M 55 207 L 58 207 L 58 212.484375 L 55 212.484375 Z M 55 207 " clip-rule="nonzero"/></clipPath><clipPath id="f753a21863"><path d="M 138.238281 91.792969 L 337.5 91.792969 L 337.5 212.429688 L 138.238281 212.429688 Z M 138.238281 91.792969 " clip-rule="nonzero"/></clipPath><clipPath id="7dfc9564c6"><path d="M 37.5 91.792969 L 236.796875 91.792969 L 236.796875 212.429688 L 37.5 212.429688 Z M 37.5 91.792969 " clip-rule="nonzero"/></clipPath><clipPath id="8ee7c112d2"><path d="M 37.5 211 L 188.199219 211 L 188.199219 212.429688 L 37.5 212.429688 Z M 37.5 211 " clip-rule="nonzero"/></clipPath><clipPath id="50edf4b1c0"><path d="M 186.746094 211 L 337.5 211 L 337.5 212.429688 L 186.746094 212.429688 Z M 186.746094 211 " clip-rule="nonzero"/></clipPath></defs><path fill="#cb9f9f" d="M 317.960938 211.730469 L 57.042969 211.730469 L 57.042969 207.96875 C 57.042969 207.96875 83.019531 208.246094 100.496094 201.335938 C 109.996094 197.058594 262.207031 197.089844 274.503906 201.335938 C 291.945312 209.234375 317.960938 207.96875 317.960938 207.96875 L 317.960938 211.730469 " fill-opacity="1" fill-rule="nonzero"/><path fill="#f6f7fc" d="M 274.503906 211.730469 L 100.496094 211.730469 L 100.496094 200.59375 C 100.496094 200.59375 104.570312 201.34375 117.761719 187.21875 C 135.015625 168.742188 165.984375 92.570312 187.566406 92.570312 C 210.179688 92.570312 241.78125 173.292969 260.320312 190.425781 C 276.824219 205.671875 274.503906 200.589844 274.503906 200.589844 L 274.503906 211.730469 " fill-opacity="1" fill-rule="nonzero"/><path fill="#f6f7fc" d="M 231.113281 211.488281 L 144 211.488281 L 144 146.867188 C 144 146.867188 149.386719 135.996094 153.929688 128.332031 C 158.46875 120.671875 173.234375 93.085938 187.613281 93.191406 C 201.988281 93.292969 217.898438 122.269531 221.074219 127.949219 C 224.25 133.628906 231.113281 145.910156 231.113281 145.910156 L 231.113281 211.488281 " fill-opacity="1" fill-rule="nonzero"/><g clip-path="url(#45804bd316)"><path stroke-linecap="round" transform="matrix(0.00906728, 0, 0, -0.00909553, 37.500002, 212.430879)" fill="none" stroke-linejoin="round" d="M 21340.902012 77.006006 L 11733.03715 77.006006 L 11733.03715 7181.718398 C 11733.03715 7181.718398 12327.120444 8376.931757 12828.149358 9219.121263 C 13329.178272 10061.310769 14957.629944 13094.653188 16543.000883 13083.057514 C 18128.80263 13071.46184 19883.480846 9886.087251 20233.727198 9261.638734 C 20583.542742 8636.760748 21340.902012 7286.508933 21340.902012 7286.508933 Z M 21340.902012 77.006006 " stroke="#ffffff" stroke-width="144.834" stroke-opacity="1" stroke-miterlimit="10"/></g><g clip-path="url(#bc39f3bdd9)"><path stroke-linecap="round" transform="matrix(0.00906728, 0, 0, -0.00909553, 37.500002, 212.430879)" fill="none" stroke-linejoin="round" d="M 16543.000883 77.006006 L 16543.000883 13083.057514 " stroke="#ffffff" stroke-width="144.834" stroke-opacity="1" stroke-miterlimit="10"/></g><g clip-path="url(#a956b483a1)"><path stroke-linecap="round" transform="matrix(0.00906728, 0, 0, -0.00909553, 37.500002, 212.430879)" fill="none" stroke-linejoin="round" d="M 21340.902012 77.006006 L 21340.902012 7293.380444 " stroke="#ffffff" stroke-width="144.834" stroke-opacity="1" stroke-miterlimit="10"/></g><g clip-path="url(#5f839ef0cb)"><path stroke-linecap="round" transform="matrix(0.00906728, 0, 0, -0.00909553, 37.500002, 212.430879)" fill="none" stroke-linejoin="round" d="M 26138.372333 77.006006 L 26138.372333 1278.661405 " stroke="#ffffff" stroke-width="144.834" stroke-opacity="1" stroke-miterlimit="10"/></g><g clip-path="url(#78dda58937)"><path stroke-linecap="round" transform="matrix(0.00906728, 0, 0, -0.00909553, 37.500002, 212.430879)" fill="none" stroke-linejoin="round" d="M 30974.184506 77.006006 L 30974.184506 460.092716 " stroke="#ffffff" stroke-width="144.834" stroke-opacity="1" stroke-miterlimit="10"/></g><g clip-path="url(#a80c2b9041)"><path stroke-linecap="round" transform="matrix(0.00906728, 0, 0, -0.00909553, 37.500002, 212.430879)" fill="none" stroke-linejoin="round" d="M 11745.099754 77.006006 L 11745.099754 153.45156 " stroke="#ffffff" stroke-width="115.142998" stroke-opacity="1" stroke-miterlimit="4"/></g><path fill="#ffffff" d="M 144.519531 206.933594 L 144.519531 205.566406 C 144.519531 205.421875 144.46875 205.296875 144.367188 205.195312 C 144.261719 205.09375 144.140625 205.042969 143.996094 205.042969 C 143.851562 205.042969 143.730469 205.09375 143.628906 205.195312 C 143.523438 205.296875 143.472656 205.421875 143.472656 205.566406 L 143.472656 206.933594 C 143.472656 207.078125 143.523438 207.203125 143.628906 207.304688 C 143.730469 207.40625 143.851562 207.457031 143.996094 207.457031 C 144.140625 207.457031 144.261719 207.40625 144.367188 207.304688 C 144.46875 207.203125 144.519531 207.078125 144.519531 206.933594 Z M 144.519531 201.464844 L 144.519531 200.097656 C 144.519531 199.953125 144.46875 199.832031 144.367188 199.730469 C 144.261719 199.625 144.140625 199.574219 143.996094 199.574219 C 143.851562 199.574219 143.730469 199.625 143.628906 199.730469 C 143.523438 199.832031 143.472656 199.953125 143.472656 200.097656 L 143.472656 201.464844 C 143.472656 201.609375 143.523438 201.734375 143.628906 201.835938 C 143.730469 201.9375 143.851562 201.988281 143.996094 201.988281 C 144.140625 201.988281 144.261719 201.9375 144.367188 201.835938 C 144.46875 201.734375 144.519531 201.609375 144.519531 201.464844 Z M 144.519531 196 L 144.519531 194.632812 C 144.519531 194.488281 144.46875 194.363281 144.367188 194.261719 C 144.261719 194.160156 144.140625 194.109375 143.996094 194.109375 C 143.851562 194.109375 143.730469 194.160156 143.628906 194.261719 C 143.523438 194.363281 143.472656 194.488281 143.472656 194.632812 L 143.472656 196 C 143.472656 196.144531 143.523438 196.265625 143.628906 196.367188 C 143.730469 196.472656 143.851562 196.523438 143.996094 196.523438 C 144.140625 196.523438 144.261719 196.472656 144.367188 196.367188 C 144.46875 196.265625 144.519531 196.144531 144.519531 196 Z M 144.519531 190.53125 L 144.519531 189.164062 C 144.519531 189.019531 144.46875 188.894531 144.367188 188.792969 C 144.261719 188.691406 144.140625 188.640625 143.996094 188.640625 C 143.851562 188.640625 143.730469 188.691406 143.628906 188.792969 C 143.523438 188.894531 143.472656 189.019531 143.472656 189.164062 L 143.472656 190.53125 C 143.472656 190.675781 143.523438 190.800781 143.628906 190.902344 C 143.730469 191.003906 143.851562 191.054688 143.996094 191.054688 C 144.140625 191.054688 144.261719 191.003906 144.367188 190.902344 C 144.46875 190.800781 144.519531 190.675781 144.519531 190.53125 Z M 144.519531 185.0625 L 144.519531 183.695312 C 144.519531 183.550781 144.46875 183.429688 144.367188 183.328125 C 144.261719 183.222656 144.140625 183.171875 143.996094 183.171875 C 143.851562 183.171875 143.730469 183.222656 143.628906 183.328125 C 143.523438 183.429688 143.472656 183.550781 143.472656 183.695312 L 143.472656 185.0625 C 143.472656 185.207031 143.523438 185.332031 143.628906 185.433594 C 143.730469 185.535156 143.851562 185.585938 143.996094 185.585938 C 144.140625 185.585938 144.261719 185.535156 144.367188 185.433594 C 144.46875 185.332031 144.519531 185.207031 144.519531 185.0625 Z M 144.519531 179.597656 L 144.519531 178.230469 C 144.519531 178.085938 144.46875 177.960938 144.367188 177.859375 C 144.261719 177.757812 144.140625 177.707031 143.996094 177.707031 C 143.851562 177.707031 143.730469 177.757812 143.628906 177.859375 C 143.523438 177.960938 143.472656 178.085938 143.472656 178.230469 L 143.472656 179.597656 C 143.472656 179.742188 143.523438 179.863281 143.628906 179.96875 C 143.730469 180.070312 143.851562 180.121094 143.996094 180.121094 C 144.140625 180.121094 144.261719 180.070312 144.367188 179.96875 C 144.46875 179.863281 144.519531 179.742188 144.519531 179.597656 Z M 144.519531 174.128906 L 144.519531 172.761719 C 144.519531 172.617188 144.46875 172.496094 144.367188 172.390625 C 144.261719 172.289062 144.140625 172.238281 143.996094 172.238281 C 143.851562 172.238281 143.730469 172.289062 143.628906 172.390625 C 143.523438 172.496094 143.472656 172.617188 143.472656 172.761719 L 143.472656 174.128906 C 143.472656 174.273438 143.523438 174.398438 143.628906 174.5 C 143.730469 174.601562 143.851562 174.652344 143.996094 174.652344 C 144.140625 174.652344 144.261719 174.601562 144.367188 174.5 C 144.46875 174.398438 144.519531 174.273438 144.519531 174.128906 Z M 144.519531 168.660156 L 144.519531 167.292969 C 144.519531 167.148438 144.46875 167.027344 144.367188 166.925781 C 144.261719 166.824219 144.140625 166.769531 143.996094 166.769531 C 143.851562 166.769531 143.730469 166.824219 143.628906 166.925781 C 143.523438 167.027344 143.472656 167.148438 143.472656 167.292969 L 143.472656 168.660156 C 143.472656 168.804688 143.523438 168.929688 143.628906 169.03125 C 143.730469 169.132812 143.851562 169.183594 143.996094 169.183594 C 144.140625 169.183594 144.261719 169.132812 144.367188 169.03125 C 144.46875 168.929688 144.519531 168.804688 144.519531 168.660156 Z M 144.519531 163.195312 L 144.519531 161.828125 C 144.519531 161.683594 144.46875 161.558594 144.367188 161.457031 C 144.261719 161.355469 144.140625 161.304688 143.996094 161.304688 C 143.851562 161.304688 143.730469 161.355469 143.628906 161.457031 C 143.523438 161.558594 143.472656 161.683594 143.472656 161.828125 L 143.472656 163.195312 C 143.472656 163.339844 143.523438 163.460938 143.628906 163.566406 C 143.730469 163.667969 143.851562 163.71875 143.996094 163.71875 C 144.140625 163.71875 144.261719 163.667969 144.367188 163.566406 C 144.46875 163.460938 144.519531 163.339844 144.519531 163.195312 Z M 144.519531 157.726562 L 144.519531 156.359375 C 144.519531 156.214844 144.46875 156.09375 144.367188 155.988281 C 144.261719 155.886719 144.140625 155.835938 143.996094 155.835938 C 143.851562 155.835938 143.730469 155.886719 143.628906 155.988281 C 143.523438 156.09375 143.472656 156.214844 143.472656 156.359375 L 143.472656 157.726562 C 143.472656 157.871094 143.523438 157.996094 143.628906 158.097656 C 143.730469 158.199219 143.851562 158.25 143.996094 158.25 C 144.140625 158.25 144.261719 158.199219 144.367188 158.097656 C 144.46875 157.996094 144.519531 157.871094 144.519531 157.726562 Z M 144.519531 152.257812 L 144.519531 150.894531 C 144.519531 150.75 144.46875 150.625 144.367188 150.523438 C 144.261719 150.421875 144.140625 150.367188 143.996094 150.367188 C 143.851562 150.367188 143.730469 150.421875 143.628906 150.523438 C 143.523438 150.625 143.472656 150.75 143.472656 150.894531 L 143.472656 152.257812 C 143.472656 152.402344 143.523438 152.527344 143.628906 152.628906 C 143.730469 152.730469 143.851562 152.78125 143.996094 152.78125 C 144.140625 152.78125 144.261719 152.730469 144.367188 152.628906 C 144.46875 152.527344 144.519531 152.402344 144.519531 152.257812 Z M 144.519531 152.257812 " fill-opacity="1" fill-rule="nonzero"/><path stroke-linecap="round" transform="matrix(0.00906728, 0, 0, -0.00909553, 37.500002, 212.430879)" fill="none" stroke-linejoin="round" d="M 11745.099754 7216.50542 L 11745.099754 7293.380444 " stroke="#ffffff" stroke-width="115.142998" stroke-opacity="1" stroke-miterlimit="4"/><g clip-path="url(#a4228560c9)"><path stroke-linecap="round" transform="matrix(0.00906728, 0, 0, -0.00909553, 37.500002, 212.430879)" fill="none" stroke-linejoin="round" d="M 6947.629433 77.006006 L 6947.629433 1278.661405 " stroke="#ffffff" stroke-width="144.834" stroke-opacity="1" stroke-miterlimit="10"/></g><g clip-path="url(#7df2a475c9)"><path stroke-linecap="round" transform="matrix(0.00906728, 0, 0, -0.00909553, 37.500002, 212.430879)" fill="none" stroke-linejoin="round" d="M 2111.386453 77.006006 L 2111.386453 460.092716 " stroke="#ffffff" stroke-width="144.834" stroke-opacity="1" stroke-miterlimit="10"/></g><g clip-path="url(#f753a21863)"><path stroke-linecap="butt" transform="matrix(0.00906728, 0, 0, -0.00909553, 37.500002, 212.430879)" fill="none" stroke-linejoin="miter" d="M 16543.000883 13071.46184 C 18858.590231 13071.46184 20985.055165 7342.769426 23308.829852 3995.055402 C 24719.723826 1962.376701 25732.12103 1212.093647 27736.236685 808.392405 C 29011.857161 551.140231 31185.7109 454.509614 32525.09086 460.522186 " stroke="#db4c21" stroke-width="383.81" stroke-opacity="1" stroke-miterlimit="10"/></g><g clip-path="url(#7dfc9564c6)"><path stroke-linecap="butt" transform="matrix(0.00906728, 0, 0, -0.00909553, 37.500002, 212.430879)" fill="none" stroke-linejoin="miter" d="M 16543.000883 13071.46184 C 14227.411535 13071.46184 12101.377409 7342.769426 9777.171914 3995.055402 C 8366.27794 1962.376701 7353.880736 1212.093647 5349.765081 808.392405 C 4074.144605 551.140231 1900.721673 454.509614 560.910907 460.522186 " stroke="#db4c21" stroke-width="383.81" stroke-opacity="1" stroke-miterlimit="10"/></g><g clip-path="url(#8ee7c112d2)"><path stroke-linecap="round" transform="matrix(0.00906728, 0, 0, -0.00909553, 37.500002, 212.430879)" fill="none" stroke-linejoin="round" d="M 76.683478 77.006006 L 16543.000883 77.006006 " stroke="#706f6f" stroke-width="153.524002" stroke-opacity="1" stroke-miterlimit="10"/></g><g clip-path="url(#50edf4b1c0)"><path stroke-linecap="round" transform="matrix(0.00906728, 0, 0, -0.00909553, 37.500002, 212.430879)" fill="none" stroke-linejoin="round" d="M 33009.318288 77.006006 L 16543.000883 77.006006 " stroke="#706f6f" stroke-width="153.524002" stroke-opacity="1" stroke-miterlimit="10"/></g><g fill="#404040" fill-opacity="1"><g transform="translate(32.835949, 284.484356)"><g><path d="M 30.15625 -20.484375 L 14.484375 -20.484375 L 9.765625 0 L 6.875 0 L 19.84375 -56 L 38.484375 -56 C 46.210938 -56 50.078125 -52.132812 50.078125 -44.40625 C 50.078125 -37.625 48.359375 -31.941406 44.921875 -27.359375 C 41.484375 -22.773438 36.5625 -20.484375 30.15625 -20.484375 Z M 30.796875 -23.203125 C 36.128906 -23.203125 40.171875 -25.253906 42.921875 -29.359375 C 45.671875 -33.460938 47.046875 -38.476562 47.046875 -44.40625 C 47.046875 -47.382812 46.320312 -49.609375 44.875 -51.078125 C 43.4375 -52.546875 41.09375 -53.28125 37.84375 -53.28125 L 22.078125 -53.28125 L 15.125 -23.203125 Z M 30.796875 -23.203125 "/></g></g></g><g fill="#404040" fill-opacity="1"><g transform="translate(82.58204, 284.484356)"><g><path d="M 6.078125 -21.125 L 6.078125 -23.84375 L 30.640625 -23.84375 L 30.640625 -21.125 Z M 6.078125 -21.125 "/></g></g></g><g fill="#404040" fill-opacity="1"><g transform="translate(125.218494, 284.484356)"><g><path d="M 31.921875 -2.40625 L 34.3125 -2.5625 L 34.484375 0 C 28.503906 0.476562 23.570312 0.71875 19.6875 0.71875 C 14.03125 0.664062 10.109375 -1.050781 7.921875 -4.4375 C 5.734375 -7.820312 4.640625 -13.007812 4.640625 -20 C 4.640625 -33.8125 10.023438 -40.71875 20.796875 -40.71875 C 25.867188 -40.71875 29.671875 -39.195312 32.203125 -36.15625 C 34.734375 -33.113281 36 -28.234375 36 -21.515625 L 36 -18.875 L 7.59375 -18.875 C 7.59375 -13.113281 8.5 -8.832031 10.3125 -6.03125 C 12.132812 -3.238281 15.148438 -1.84375 19.359375 -1.84375 C 23.578125 -1.84375 27.765625 -2.03125 31.921875 -2.40625 Z M 7.59375 -21.4375 L 33.046875 -21.4375 C 33.046875 -27.46875 32.070312 -31.757812 30.125 -34.3125 C 28.175781 -36.875 25.066406 -38.15625 20.796875 -38.15625 C 11.992188 -38.15625 7.59375 -32.582031 7.59375 -21.4375 Z M 7.59375 -21.4375 "/></g></g></g><g fill="#404040" fill-opacity="1"><g transform="translate(171.374613, 284.484356)"><g><path d="M 17.765625 -38.15625 C 10.617188 -38.15625 7.046875 -35.488281 7.046875 -30.15625 C 7.046875 -27.65625 7.789062 -25.882812 9.28125 -24.84375 C 10.769531 -23.800781 14.070312 -22.878906 19.1875 -22.078125 C 24.3125 -21.273438 27.882812 -20.207031 29.90625 -18.875 C 31.9375 -17.539062 32.953125 -14.859375 32.953125 -10.828125 C 32.953125 -6.804688 31.671875 -3.875 29.109375 -2.03125 C 26.554688 -0.195312 22.773438 0.71875 17.765625 0.71875 C 15.046875 0.71875 11.414062 0.398438 6.875 -0.234375 L 4.5625 -0.5625 L 4.875 -3.203125 C 10.632812 -2.296875 15.222656 -1.84375 18.640625 -1.84375 C 22.054688 -1.84375 24.800781 -2.507812 26.875 -3.84375 C 28.957031 -5.175781 30 -7.441406 30 -10.640625 C 30 -13.835938 29.1875 -15.941406 27.5625 -16.953125 C 25.9375 -17.972656 22.601562 -18.867188 17.5625 -19.640625 C 12.519531 -20.410156 9.007812 -21.445312 7.03125 -22.75 C 5.0625 -24.0625 4.078125 -26.265625 4.078125 -29.359375 C 4.078125 -32.453125 4.796875 -34.835938 6.234375 -36.515625 C 7.679688 -38.203125 9.363281 -39.320312 11.28125 -39.875 C 13.195312 -40.4375 15.195312 -40.71875 17.28125 -40.71875 C 21.601562 -40.71875 25.65625 -40.425781 29.4375 -39.84375 L 31.515625 -39.515625 L 31.359375 -36.875 C 25.921875 -37.726562 21.390625 -38.15625 17.765625 -38.15625 Z M 17.765625 -38.15625 "/></g></g></g><g fill="#404040" fill-opacity="1"><g transform="translate(214.251045, 284.484356)"><g><path d="M 17.765625 -38.15625 C 10.617188 -38.15625 7.046875 -35.488281 7.046875 -30.15625 C 7.046875 -27.65625 7.789062 -25.882812 9.28125 -24.84375 C 10.769531 -23.800781 14.070312 -22.878906 19.1875 -22.078125 C 24.3125 -21.273438 27.882812 -20.207031 29.90625 -18.875 C 31.9375 -17.539062 32.953125 -14.859375 32.953125 -10.828125 C 32.953125 -6.804688 31.671875 -3.875 29.109375 -2.03125 C 26.554688 -0.195312 22.773438 0.71875 17.765625 0.71875 C 15.046875 0.71875 11.414062 0.398438 6.875 -0.234375 L 4.5625 -0.5625 L 4.875 -3.203125 C 10.632812 -2.296875 15.222656 -1.84375 18.640625 -1.84375 C 22.054688 -1.84375 24.800781 -2.507812 26.875 -3.84375 C 28.957031 -5.175781 30 -7.441406 30 -10.640625 C 30 -13.835938 29.1875 -15.941406 27.5625 -16.953125 C 25.9375 -17.972656 22.601562 -18.867188 17.5625 -19.640625 C 12.519531 -20.410156 9.007812 -21.445312 7.03125 -22.75 C 5.0625 -24.0625 4.078125 -26.265625 4.078125 -29.359375 C 4.078125 -32.453125 4.796875 -34.835938 6.234375 -36.515625 C 7.679688 -38.203125 9.363281 -39.320312 11.28125 -39.875 C 13.195312 -40.4375 15.195312 -40.71875 17.28125 -40.71875 C 21.601562 -40.71875 25.65625 -40.425781 29.4375 -39.84375 L 31.515625 -39.515625 L 31.359375 -36.875 C 25.921875 -37.726562 21.390625 -38.15625 17.765625 -38.15625 Z M 17.765625 -38.15625 "/></g></g></g><g fill="#404040" fill-opacity="1"><g transform="translate(257.127476, 284.484356)"><g><path d="M 6.3125 0 L 6.3125 -40 L 9.125 -40 L 9.125 0 Z M 6.3125 -51.59375 L 6.3125 -56 L 9.125 -56 L 9.125 -51.59375 Z M 6.3125 -51.59375 "/></g></g></g><g fill="#404040" fill-opacity="1"><g transform="translate(278.565989, 284.484356)"><g><path d="M 9.125 0 L 6.3125 0 L 6.3125 -40 L 9.125 -40 L 9.125 -36.796875 C 13.863281 -39.410156 18.710938 -40.71875 23.671875 -40.71875 C 28.640625 -40.71875 31.972656 -39.367188 33.671875 -36.671875 C 35.378906 -33.984375 36.234375 -28.691406 36.234375 -20.796875 L 36.234375 0 L 33.4375 0 L 33.4375 -20.640625 C 33.4375 -27.679688 32.796875 -32.359375 31.515625 -34.671875 C 30.234375 -36.992188 27.4375 -38.15625 23.125 -38.15625 C 20.988281 -38.15625 18.757812 -37.820312 16.4375 -37.15625 C 14.113281 -36.488281 12.316406 -35.835938 11.046875 -35.203125 L 9.125 -34.15625 Z M 9.125 0 "/></g></g></g><g fill="#404040" fill-opacity="1"><g transform="translate(326.721901, 284.484356)"><g><path d="M 6.3125 0 L 6.3125 -40 L 9.125 -40 L 9.125 0 Z M 6.3125 -51.59375 L 6.3125 -56 L 9.125 -56 L 9.125 -51.59375 Z M 6.3125 -51.59375 "/></g></g></g></svg>