<svg width="207" height="80" viewBox="0 0 207 80" fill="none" xmlns="http://www.w3.org/2000/svg">
<path d="M85.136 37.128C87.44 34.696 90.352 33.48 93.872 33.48C96.432 33.48 98.56 34.152 100.256 35.496C101.952 36.808 103.024 38.52 103.472 40.632C103.504 40.792 103.52 40.952 103.52 41.112C103.52 41.784 103.136 42.28 102.368 42.6C98.24 44.2 92.96 46.056 86.528 48.168C87.04 49.768 88 51.176 89.408 52.392C90.848 53.608 92.592 54.216 94.64 54.216C97.552 54.216 100.08 53.08 102.224 50.808C102.512 50.52 102.784 50.376 103.04 50.376C103.168 50.376 103.312 50.424 103.472 50.52C103.664 50.616 103.76 50.808 103.76 51.096C103.76 51.256 103.712 51.448 103.616 51.672C103.008 53.112 101.76 54.44 99.872 55.656C97.984 56.872 95.664 57.48 92.912 57.48C89.584 57.48 86.88 56.424 84.8 54.312C82.72 52.168 81.68 49.496 81.68 46.296C81.68 42.648 82.832 39.592 85.136 37.128ZM86.192 46.152C91.12 44.52 94.848 43.224 97.376 42.264C98.016 42.008 98.336 41.576 98.336 40.968C98.336 40.872 98.32 40.76 98.288 40.632C98.064 39.192 97.376 38.024 96.224 37.128C95.072 36.2 93.872 35.736 92.624 35.736C92.56 35.736 92.48 35.736 92.384 35.736C90.368 35.768 88.784 36.552 87.632 38.088C86.48 39.592 85.904 41.304 85.904 43.224C85.904 44.536 86 45.512 86.192 46.152ZM107.715 49.464C107.779 49.432 107.859 49.416 107.955 49.416C108.339 49.416 108.803 49.72 109.347 50.328C111.107 52.216 112.675 53.512 114.051 54.216C115.427 54.92 116.835 55.272 118.275 55.272C119.427 55.272 120.387 55 121.155 54.456C121.923 53.912 122.307 53.128 122.307 52.104C122.307 51.144 121.779 50.312 120.723 49.608C119.667 48.904 118.003 48.088 115.731 47.16C114.419 46.648 113.379 46.216 112.611 45.864C111.875 45.512 111.059 45.048 110.163 44.472C109.299 43.864 108.659 43.192 108.243 42.456C107.859 41.688 107.667 40.84 107.667 39.912C107.667 37.864 108.435 36.28 109.971 35.16C111.507 34.04 113.283 33.48 115.299 33.48C116.291 33.48 117.363 33.576 118.515 33.768C119.667 33.96 120.371 34.056 120.627 34.056C120.659 34.056 120.691 34.056 120.723 34.056C120.979 34.056 121.235 33.96 121.491 33.768C121.779 33.576 122.019 33.48 122.211 33.48C122.595 33.48 123.027 33.896 123.507 34.728C123.603 34.888 123.667 35 123.699 35.064C124.179 35.96 124.675 36.984 125.187 38.136C125.315 38.488 125.379 38.792 125.379 39.048C125.379 39.4 125.251 39.656 124.995 39.816C124.771 39.848 124.627 39.88 124.563 39.912C124.531 39.944 124.499 39.96 124.467 39.96C124.371 39.96 124.211 39.896 123.987 39.768C123.763 39.608 123.587 39.48 123.459 39.384C123.363 39.288 123.139 39.112 122.787 38.856C122.467 38.568 122.179 38.328 121.923 38.136C119.651 36.44 117.491 35.592 115.443 35.592C114.195 35.592 113.203 35.88 112.467 36.456C111.763 37 111.411 37.704 111.411 38.568C111.411 39.56 111.891 40.392 112.851 41.064C113.843 41.704 115.587 42.52 118.083 43.512C120.835 44.6 122.915 45.672 124.323 46.728C125.731 47.784 126.435 49.128 126.435 50.76C126.435 52.584 125.619 54.168 123.987 55.512C122.355 56.824 120.259 57.48 117.699 57.48C116.451 57.48 115.235 57.32 114.051 57C112.899 56.712 112.259 56.568 112.131 56.568C111.875 56.568 111.571 56.712 111.219 57C110.899 57.32 110.595 57.48 110.307 57.48C109.987 57.48 109.763 57.384 109.635 57.192C109.507 57.032 109.283 56.584 108.963 55.848C108.131 53.64 107.539 51.944 107.187 50.76C107.155 50.6 107.139 50.456 107.139 50.328C107.139 49.912 107.331 49.624 107.715 49.464ZM130.496 49.464C130.56 49.432 130.64 49.416 130.736 49.416C131.12 49.416 131.584 49.72 132.128 50.328C133.888 52.216 135.456 53.512 136.832 54.216C138.208 54.92 139.616 55.272 141.056 55.272C142.208 55.272 143.168 55 143.936 54.456C144.704 53.912 145.088 53.128 145.088 52.104C145.088 51.144 144.56 50.312 143.504 49.608C142.448 48.904 140.784 48.088 138.512 47.16C137.2 46.648 136.16 46.216 135.392 45.864C134.656 45.512 133.84 45.048 132.944 44.472C132.08 43.864 131.44 43.192 131.024 42.456C130.64 41.688 130.448 40.84 130.448 39.912C130.448 37.864 131.216 36.28 132.752 35.16C134.288 34.04 136.064 33.48 138.08 33.48C139.072 33.48 140.144 33.576 141.296 33.768C142.448 33.96 143.152 34.056 143.408 34.056C143.44 34.056 143.472 34.056 143.504 34.056C143.76 34.056 144.016 33.96 144.272 33.768C144.56 33.576 144.8 33.48 144.992 33.48C145.376 33.48 145.808 33.896 146.288 34.728C146.384 34.888 146.448 35 146.48 35.064C146.96 35.96 147.456 36.984 147.968 38.136C148.096 38.488 148.16 38.792 148.16 39.048C148.16 39.4 148.032 39.656 147.776 39.816C147.552 39.848 147.408 39.88 147.344 39.912C147.312 39.944 147.28 39.96 147.248 39.96C147.152 39.96 146.992 39.896 146.768 39.768C146.544 39.608 146.368 39.48 146.24 39.384C146.144 39.288 145.92 39.112 145.568 38.856C145.248 38.568 144.96 38.328 144.704 38.136C142.432 36.44 140.272 35.592 138.224 35.592C136.976 35.592 135.984 35.88 135.248 36.456C134.544 37 134.192 37.704 134.192 38.568C134.192 39.56 134.672 40.392 135.632 41.064C136.624 41.704 138.368 42.52 140.864 43.512C143.616 44.6 145.696 45.672 147.104 46.728C148.512 47.784 149.216 49.128 149.216 50.76C149.216 52.584 148.4 54.168 146.768 55.512C145.136 56.824 143.04 57.48 140.48 57.48C139.232 57.48 138.016 57.32 136.832 57C135.68 56.712 135.04 56.568 134.912 56.568C134.656 56.568 134.352 56.712 134 57C133.68 57.32 133.376 57.48 133.088 57.48C132.768 57.48 132.544 57.384 132.416 57.192C132.288 57.032 132.064 56.584 131.744 55.848C130.912 53.64 130.32 51.944 129.968 50.76C129.936 50.6 129.92 50.456 129.92 50.328C129.92 49.912 130.112 49.624 130.496 49.464ZM153.517 35.688C153.677 35.528 154.029 35.32 154.573 35.064C156.717 34.072 158.205 33.544 159.037 33.48C159.101 33.48 159.149 33.48 159.181 33.48C159.725 33.48 159.997 33.832 159.997 34.536L159.949 41.16V50.664C159.949 51.72 160.061 52.568 160.285 53.208C160.541 53.848 160.797 54.28 161.053 54.504C161.341 54.696 161.597 54.92 161.821 55.176C162.077 55.432 162.205 55.736 162.205 56.088C162.205 56.696 161.581 57 160.333 57H155.197C153.917 57 153.277 56.68 153.277 56.04C153.277 55.688 153.389 55.4 153.613 55.176C153.869 54.92 154.141 54.696 154.429 54.504C154.717 54.28 154.973 53.848 155.197 53.208C155.453 52.568 155.581 51.72 155.581 50.664V41.16C155.581 40.2 155.453 39.432 155.197 38.856C154.973 38.28 154.701 37.912 154.381 37.752C154.093 37.56 153.821 37.352 153.565 37.128C153.341 36.904 153.229 36.632 153.229 36.312C153.229 36.056 153.325 35.848 153.517 35.688ZM153.853 27.48C153.917 26.584 154.365 25.768 155.197 25.032C156.029 24.296 156.845 23.928 157.645 23.928C157.773 23.928 157.901 23.944 158.029 23.976C158.669 24.008 159.181 24.28 159.565 24.792C159.981 25.272 160.189 25.784 160.189 26.328C160.189 26.392 160.189 26.44 160.189 26.472C160.125 27.336 159.661 28.12 158.797 28.824C157.933 29.528 157.085 29.88 156.253 29.88C156.157 29.88 156.077 29.88 156.013 29.88C155.341 29.816 154.813 29.576 154.429 29.16C154.045 28.744 153.853 28.232 153.853 27.624C153.853 27.592 153.853 27.544 153.853 27.48ZM166.916 36.312C166.916 36.024 166.996 35.8 167.156 35.64C167.348 35.448 167.732 35.224 168.308 34.968C170.068 34.136 171.38 33.688 172.244 33.624C172.884 33.624 173.204 33.976 173.204 34.68L173.156 38.76C174.084 37.064 175.3 35.768 176.804 34.872C178.34 33.944 179.94 33.48 181.604 33.48C184.036 33.48 185.908 34.248 187.22 35.784C188.564 37.32 189.54 39.912 190.148 43.56L191.636 52.008C191.764 52.68 191.972 53.24 192.26 53.688C192.548 54.136 192.836 54.456 193.124 54.648C193.412 54.808 193.652 55.016 193.844 55.272C194.068 55.496 194.18 55.768 194.18 56.088C194.18 56.696 193.556 57 192.308 57H187.22C185.94 57 185.3 56.68 185.3 56.04C185.3 55.784 185.38 55.56 185.54 55.368C185.732 55.176 185.94 55 186.164 54.84C186.388 54.68 186.596 54.504 186.788 54.312C187.012 54.088 187.156 53.816 187.22 53.496C187.284 53.176 187.332 52.904 187.364 52.68C187.332 52.424 187.3 52.152 187.268 51.864L185.876 43.896C185.684 42.712 185.492 41.768 185.3 41.064C185.108 40.36 184.804 39.608 184.388 38.808C183.972 37.976 183.412 37.368 182.708 36.984C182.004 36.6 181.124 36.408 180.068 36.408C178.34 36.44 176.836 37.208 175.556 38.712C174.276 40.216 173.636 42.344 173.636 45.096V50.664C173.636 51.72 173.748 52.568 173.972 53.208C174.196 53.848 174.452 54.28 174.74 54.504C175.028 54.696 175.284 54.92 175.508 55.176C175.732 55.432 175.844 55.736 175.844 56.088C175.844 56.696 175.22 57 173.972 57H168.836C167.556 57 166.916 56.68 166.916 56.04C166.916 55.688 167.028 55.4 167.252 55.176C167.508 54.92 167.78 54.696 168.068 54.504C168.388 54.28 168.66 53.848 168.884 53.208C169.14 52.568 169.268 51.72 169.268 50.664V41.016C169.268 39.192 168.772 37.992 167.78 37.416C167.204 37.064 166.916 36.696 166.916 36.312ZM197.486 35.688C197.646 35.528 197.998 35.32 198.542 35.064C200.686 34.072 202.174 33.544 203.006 33.48C203.07 33.48 203.118 33.48 203.15 33.48C203.694 33.48 203.966 33.832 203.966 34.536L203.918 41.16V50.664C203.918 51.72 204.03 52.568 204.254 53.208C204.51 53.848 204.766 54.28 205.022 54.504C205.31 54.696 205.566 54.92 205.79 55.176C206.046 55.432 206.174 55.736 206.174 56.088C206.174 56.696 205.55 57 204.302 57H199.166C197.886 57 197.246 56.68 197.246 56.04C197.246 55.688 197.358 55.4 197.582 55.176C197.838 54.92 198.11 54.696 198.398 54.504C198.686 54.28 198.942 53.848 199.166 53.208C199.422 52.568 199.55 51.72 199.55 50.664V41.16C199.55 40.2 199.422 39.432 199.166 38.856C198.942 38.28 198.67 37.912 198.35 37.752C198.062 37.56 197.79 37.352 197.534 37.128C197.31 36.904 197.198 36.632 197.198 36.312C197.198 36.056 197.294 35.848 197.486 35.688ZM197.822 27.48C197.886 26.584 198.334 25.768 199.166 25.032C199.998 24.296 200.814 23.928 201.614 23.928C201.742 23.928 201.87 23.944 201.998 23.976C202.638 24.008 203.15 24.28 203.534 24.792C203.95 25.272 204.158 25.784 204.158 26.328C204.158 26.392 204.158 26.44 204.158 26.472C204.094 27.336 203.63 28.12 202.766 28.824C201.902 29.528 201.054 29.88 200.222 29.88C200.126 29.88 200.046 29.88 199.982 29.88C199.31 29.816 198.782 29.576 198.398 29.16C198.014 28.744 197.822 28.232 197.822 27.624C197.822 27.592 197.822 27.544 197.822 27.48Z" fill="white"/>
<path d="M65.112 43.224L65.256 42.696C65.352 42.184 65.656 41.928 66.168 41.928H76.344C76.824 41.928 77.064 42.152 77.064 42.6C77.064 42.664 77.064 42.744 77.064 42.84L76.92 43.368C76.824 43.88 76.504 44.136 75.96 44.136H65.832C65.32 44.136 65.064 43.928 65.064 43.512C65.064 43.416 65.08 43.32 65.112 43.224Z" fill="white"/>
<rect y="12" width="60" height="60" rx="10" fill="#0A696D"/>
<path d="M17.4926 26.36C17.4926 25.944 17.6686 25.688 18.0206 25.592C18.3726 25.464 18.9966 25.4 19.8926 25.4H28.4846C33.4766 25.4 37.3646 26.536 40.1486 28.808C42.9326 31.048 44.3246 33.864 44.3246 37.256C44.3246 40.808 43.0926 43.544 40.6286 45.464C38.1646 47.352 34.5646 48.296 29.8286 48.296H25.7486C25.3006 48.296 25.0286 48.344 24.9326 48.44C24.8366 48.536 24.7886 48.808 24.7886 49.256V52.04C24.7886 53.288 24.9326 54.296 25.2206 55.064C25.5086 55.8 25.8126 56.264 26.1326 56.456C26.4846 56.648 26.8046 56.872 27.0926 57.128C27.3806 57.352 27.5246 57.656 27.5246 58.04C27.5246 58.68 26.7406 59 25.1726 59H19.8926C18.2926 59 17.4926 58.68 17.4926 58.04C17.4926 57.656 17.6366 57.352 17.9246 57.128C18.2446 56.872 18.5806 56.648 18.9326 56.456C19.2846 56.264 19.6046 55.8 19.8926 55.064C20.2126 54.296 20.3726 53.288 20.3726 52.04V31.976C20.3726 30.76 20.2126 29.8 19.8926 29.096C19.6046 28.392 19.2846 27.96 18.9326 27.8C18.5806 27.64 18.2446 27.464 17.9246 27.272C17.6366 27.048 17.4926 26.744 17.4926 26.36ZM25.0766 45.56C25.2686 45.752 25.7166 45.912 26.4206 46.04C27.1566 46.136 28.2446 46.184 29.6846 46.184C36.2446 46.184 39.5246 43.512 39.5246 38.168C39.5246 35.064 38.4846 32.52 36.4046 30.536C34.3566 28.52 31.6846 27.512 28.3886 27.512C26.8526 27.512 25.8606 27.608 25.4126 27.8C24.9966 27.96 24.7886 28.296 24.7886 28.808V44.792C24.7886 45.144 24.8846 45.4 25.0766 45.56Z" fill="white"/>
</svg>
