<svg width="347" height="95" viewBox="0 0 347 95" fill="none" xmlns="http://www.w3.org/2000/svg">
<rect width="95" height="95" rx="20" fill="#0A696D"/>
<path d="M41.4504 50.928V70.608C41.4504 72.08 42.1544 73.136 43.5624 73.776C44.9704 74.352 47.0824 74.832 49.8984 75.216C50.6664 75.344 51.0504 75.888 51.0504 76.848C51.0504 77.296 50.9864 77.84 50.8584 78.48C49.0024 78.352 46.8904 78.224 44.5224 78.096C42.1544 78.032 39.5944 78 36.8424 78C35.1784 78 33.2904 78.032 31.1784 78.096C29.0664 78.224 27.0824 78.352 25.2264 78.48C25.0984 77.84 25.0344 77.328 25.0344 76.944C25.0344 76.048 25.3544 75.536 25.9944 75.408C28.5544 74.896 30.2504 74.416 31.0824 73.968C31.9784 73.456 32.4264 72.56 32.4264 71.28V22.416C32.4264 21.136 31.9144 20.208 30.8904 19.632C29.9304 19.056 28.1704 18.608 25.6104 18.288C24.9704 18.16 24.6504 17.584 24.6504 16.56C24.6504 16.112 24.7144 15.632 24.8424 15.12C26.6344 15.248 28.5224 15.376 30.5064 15.504C32.5544 15.568 34.4744 15.6 36.2664 15.6H49.8024C56.7144 15.6 61.8984 17.232 65.3544 20.496C68.8104 23.76 70.5384 27.984 70.5384 33.168C70.5384 35.216 70.0584 37.296 69.0984 39.408C68.2024 41.52 66.8584 43.44 65.0664 45.168C63.3384 46.832 61.1624 48.208 58.5384 49.296C55.9784 50.384 53.0664 50.928 49.8024 50.928H41.4504ZM46.5384 46.992C51.0184 46.992 54.4744 46 56.9064 44.016C59.3384 42.032 60.5544 38.672 60.5544 33.936C60.5544 31.952 60.3304 30.096 59.8824 28.368C59.4344 26.64 58.6664 25.136 57.5784 23.856C56.4904 22.512 55.0504 21.456 53.2584 20.688C51.4664 19.92 49.2264 19.536 46.5384 19.536H41.4504V46.992H46.5384Z" fill="white"/>
<path d="M131.446 50.61C131.506 50.97 131.536 51.33 131.536 51.69C131.536 51.99 131.536 52.29 131.536 52.59C131.536 53.61 131.416 54.45 131.176 55.11C130.936 55.77 130.516 56.1 129.916 56.1H111.106C110.986 55.68 110.896 55.17 110.836 54.57C110.836 53.97 110.836 53.52 110.836 53.22C110.836 51.48 111.376 50.61 112.456 50.61H131.446ZM171.177 66.63C171.597 66.21 172.047 66 172.527 66C173.127 66 173.697 66.51 174.237 67.53C173.457 68.61 172.557 69.66 171.537 70.68C170.517 71.7 169.287 72.63 167.847 73.47C166.467 74.25 164.877 74.88 163.077 75.36C161.277 75.84 159.207 76.08 156.867 76.08C154.467 76.08 152.187 75.69 150.027 74.91C147.867 74.13 145.947 72.93 144.267 71.31C142.647 69.69 141.327 67.68 140.307 65.28C139.347 62.88 138.867 60.06 138.867 56.82C138.867 53.76 139.437 50.94 140.577 48.36C141.777 45.78 143.307 43.59 145.167 41.79C147.027 39.93 149.067 38.49 151.287 37.47C153.567 36.45 155.757 35.94 157.857 35.94C163.437 35.94 167.487 37.56 170.007 40.8C172.587 44.04 173.877 48.27 173.877 53.49C173.877 53.85 173.697 54.03 173.337 54.03L147.237 55.2C147.237 57.54 147.567 59.7 148.227 61.68C148.887 63.66 149.817 65.37 151.017 66.81C152.217 68.25 153.657 69.39 155.337 70.23C157.077 71.01 159.027 71.4 161.187 71.4C163.107 71.4 164.937 70.95 166.677 70.05C168.477 69.15 169.977 68.01 171.177 66.63ZM156.597 39.18C153.597 39.18 151.257 40.35 149.577 42.69C147.897 45.03 147.057 48.09 147.057 51.87L164.067 51.06C164.967 51.06 165.417 50.67 165.417 49.89C165.417 48.75 165.237 47.55 164.877 46.29C164.517 45.03 163.977 43.89 163.257 42.87C162.537 41.79 161.607 40.92 160.467 40.26C159.387 39.54 158.097 39.18 156.597 39.18ZM204.823 47.01C204.343 47.01 203.983 46.92 203.743 46.74C203.563 46.5 203.443 46.26 203.383 46.02C202.963 43.56 201.973 41.82 200.413 40.8C198.913 39.72 197.023 39.18 194.743 39.18C193.003 39.18 191.443 39.69 190.063 40.71C188.743 41.67 188.083 43.02 188.083 44.76C188.083 46.32 188.683 47.64 189.883 48.72C191.143 49.74 193.393 50.76 196.633 51.78C198.373 52.32 199.963 52.92 201.403 53.58C202.903 54.24 204.163 55.05 205.183 56.01C206.263 56.91 207.103 58.05 207.703 59.43C208.303 60.75 208.603 62.34 208.603 64.2C208.603 65.76 208.303 67.26 207.703 68.7C207.163 70.14 206.293 71.4 205.093 72.48C203.953 73.56 202.483 74.43 200.683 75.09C198.943 75.75 196.843 76.08 194.383 76.08C192.463 76.08 190.303 75.84 187.903 75.36C185.563 74.94 183.433 74.19 181.513 73.11C181.393 71.55 181.273 69.93 181.153 68.25C181.093 66.51 181.063 64.77 181.063 63.03H181.963C182.563 63.03 183.073 63.15 183.493 63.39C183.913 63.57 184.153 63.9 184.213 64.38C184.453 66.9 185.413 68.94 187.093 70.5C188.833 72 191.233 72.75 194.293 72.75C196.753 72.75 198.643 72.21 199.963 71.13C201.283 69.99 201.943 68.46 201.943 66.54C201.943 64.56 201.223 63.06 199.783 62.04C198.343 60.96 196.213 60 193.393 59.16C189.853 58.08 187.063 56.67 185.023 54.93C183.043 53.19 182.053 50.64 182.053 47.28C182.053 45.72 182.353 44.25 182.953 42.87C183.553 41.49 184.393 40.29 185.473 39.27C186.553 38.25 187.873 37.44 189.433 36.84C190.993 36.24 192.733 35.94 194.653 35.94C197.053 35.94 199.303 36.27 201.403 36.93C203.563 37.53 205.243 38.19 206.443 38.91C206.503 39.39 206.563 39.99 206.623 40.71C206.683 41.37 206.713 42.09 206.713 42.87C206.773 43.59 206.803 44.34 206.803 45.12C206.863 45.84 206.893 46.5 206.893 47.1L204.823 47.01ZM239.628 47.01C239.148 47.01 238.788 46.92 238.548 46.74C238.368 46.5 238.248 46.26 238.188 46.02C237.768 43.56 236.778 41.82 235.218 40.8C233.718 39.72 231.828 39.18 229.548 39.18C227.808 39.18 226.248 39.69 224.868 40.71C223.548 41.67 222.888 43.02 222.888 44.76C222.888 46.32 223.488 47.64 224.688 48.72C225.948 49.74 228.198 50.76 231.438 51.78C233.178 52.32 234.768 52.92 236.208 53.58C237.708 54.24 238.968 55.05 239.988 56.01C241.068 56.91 241.908 58.05 242.508 59.43C243.108 60.75 243.408 62.34 243.408 64.2C243.408 65.76 243.108 67.26 242.508 68.7C241.968 70.14 241.098 71.4 239.898 72.48C238.758 73.56 237.288 74.43 235.488 75.09C233.748 75.75 231.648 76.08 229.188 76.08C227.268 76.08 225.108 75.84 222.708 75.36C220.368 74.94 218.238 74.19 216.318 73.11C216.198 71.55 216.078 69.93 215.958 68.25C215.898 66.51 215.868 64.77 215.868 63.03H216.768C217.368 63.03 217.878 63.15 218.298 63.39C218.718 63.57 218.958 63.9 219.018 64.38C219.258 66.9 220.218 68.94 221.898 70.5C223.638 72 226.038 72.75 229.098 72.75C231.558 72.75 233.448 72.21 234.768 71.13C236.088 69.99 236.748 68.46 236.748 66.54C236.748 64.56 236.028 63.06 234.588 62.04C233.148 60.96 231.018 60 228.198 59.16C224.658 58.08 221.868 56.67 219.828 54.93C217.848 53.19 216.858 50.64 216.858 47.28C216.858 45.72 217.158 44.25 217.758 42.87C218.358 41.49 219.198 40.29 220.278 39.27C221.358 38.25 222.678 37.44 224.238 36.84C225.798 36.24 227.538 35.94 229.458 35.94C231.858 35.94 234.108 36.27 236.208 36.93C238.368 37.53 240.048 38.19 241.248 38.91C241.308 39.39 241.368 39.99 241.428 40.71C241.488 41.37 241.518 42.09 241.518 42.87C241.578 43.59 241.608 44.34 241.608 45.12C241.668 45.84 241.698 46.5 241.698 47.1L239.628 47.01ZM259.673 75C258.653 75 257.603 75 256.523 75C255.503 75.06 254.543 75.12 253.643 75.18C252.743 75.24 251.963 75.3 251.303 75.36C250.643 75.42 250.223 75.45 250.043 75.45C250.043 75.39 250.013 75.18 249.953 74.82C249.893 74.46 249.863 74.19 249.863 74.01C249.863 73.41 250.133 73.05 250.673 72.93C252.233 72.63 253.493 72.27 254.453 71.85C255.413 71.43 255.893 70.74 255.893 69.78V45.3C255.893 43.5 255.563 42.21 254.903 41.43C254.303 40.65 252.953 40.17 250.853 39.99C250.073 39.87 249.683 39.45 249.683 38.73C249.683 38.43 249.743 38.04 249.863 37.56C250.643 37.56 251.723 37.53 253.103 37.47C254.543 37.35 255.713 37.23 256.613 37.11C257.993 36.87 259.223 36.63 260.303 36.39C261.383 36.09 262.163 35.94 262.643 35.94C263.483 35.94 263.903 36.39 263.903 37.29C263.903 38.13 263.813 39.15 263.633 40.35C263.453 41.49 263.363 43.02 263.363 44.94V69.78C263.363 70.74 263.813 71.43 264.713 71.85C265.673 72.27 266.993 72.63 268.673 72.93C269.153 73.05 269.393 73.41 269.393 74.01C269.393 74.19 269.363 74.46 269.303 74.82C269.303 75.18 269.273 75.39 269.213 75.45C269.033 75.45 268.613 75.42 267.953 75.36C267.353 75.3 266.603 75.24 265.703 75.18C264.803 75.12 263.813 75.06 262.733 75C261.713 75 260.693 75 259.673 75ZM254.453 20.91C254.453 19.47 254.933 18.24 255.893 17.22C256.913 16.14 258.173 15.6 259.673 15.6C261.113 15.6 262.313 16.14 263.273 17.22C264.233 18.24 264.713 19.47 264.713 20.91C264.713 22.47 264.233 23.73 263.273 24.69C262.313 25.65 261.113 26.13 259.673 26.13C258.173 26.13 256.913 25.65 255.893 24.69C254.933 23.73 254.453 22.47 254.453 20.91ZM314.162 69.87C314.162 70.77 314.702 71.46 315.782 71.94C316.862 72.36 318.062 72.69 319.382 72.93C319.922 73.05 320.192 73.41 320.192 74.01C320.192 74.37 320.132 74.85 320.012 75.45C318.452 75.33 316.922 75.21 315.422 75.09C313.922 75.03 312.302 75 310.562 75C308.942 75 307.322 75.03 305.702 75.09C304.142 75.21 302.582 75.33 301.022 75.45C300.902 74.85 300.842 74.37 300.842 74.01C300.842 73.41 301.112 73.05 301.652 72.93C302.912 72.69 304.052 72.36 305.072 71.94C306.092 71.46 306.602 70.77 306.602 69.87V52.23C306.602 50.73 306.512 49.35 306.332 48.09C306.152 46.83 305.792 45.75 305.252 44.85C304.772 43.89 304.082 43.17 303.182 42.69C302.342 42.15 301.232 41.88 299.852 41.88C298.352 41.88 296.882 42.15 295.442 42.69C294.002 43.17 292.712 43.92 291.572 44.94C290.492 45.9 289.622 47.1 288.962 48.54C288.302 49.98 287.972 51.63 287.972 53.49V69.87C287.972 70.77 288.482 71.46 289.502 71.94C290.582 72.36 291.722 72.69 292.922 72.93C293.462 73.05 293.732 73.41 293.732 74.01C293.732 74.37 293.672 74.85 293.552 75.45C291.992 75.33 290.462 75.21 288.962 75.09C287.462 75.03 285.872 75 284.192 75C282.452 75 280.802 75.03 279.242 75.09C277.682 75.21 276.152 75.33 274.652 75.45C274.532 74.85 274.472 74.37 274.472 74.01C274.472 73.41 274.742 73.05 275.282 72.93C276.602 72.69 277.802 72.36 278.882 71.94C279.962 71.46 280.502 70.74 280.502 69.78V45.3C280.502 43.5 280.172 42.21 279.512 41.43C278.912 40.65 277.562 40.17 275.462 39.99C274.682 39.87 274.292 39.45 274.292 38.73C274.292 38.43 274.352 38.04 274.472 37.56C275.252 37.56 276.332 37.53 277.712 37.47C279.152 37.35 280.322 37.23 281.222 37.11C282.602 36.87 283.832 36.63 284.912 36.39C285.992 36.09 286.772 35.94 287.252 35.94C288.092 35.94 288.512 36.39 288.512 37.29C288.512 38.13 288.422 39.15 288.242 40.35C288.062 41.49 287.972 43.02 287.972 44.94C290.552 42.06 293.012 39.84 295.352 38.28C297.752 36.72 300.362 35.94 303.182 35.94C306.842 35.94 309.572 37.02 311.372 39.18C313.232 41.28 314.162 44.22 314.162 48V69.87ZM335.171 75C334.151 75 333.101 75 332.021 75C331.001 75.06 330.041 75.12 329.141 75.18C328.241 75.24 327.461 75.3 326.801 75.36C326.141 75.42 325.721 75.45 325.541 75.45C325.541 75.39 325.511 75.18 325.451 74.82C325.391 74.46 325.361 74.19 325.361 74.01C325.361 73.41 325.631 73.05 326.171 72.93C327.731 72.63 328.991 72.27 329.951 71.85C330.911 71.43 331.391 70.74 331.391 69.78V45.3C331.391 43.5 331.061 42.21 330.401 41.43C329.801 40.65 328.451 40.17 326.351 39.99C325.571 39.87 325.181 39.45 325.181 38.73C325.181 38.43 325.241 38.04 325.361 37.56C326.141 37.56 327.221 37.53 328.601 37.47C330.041 37.35 331.211 37.23 332.111 37.11C333.491 36.87 334.721 36.63 335.801 36.39C336.881 36.09 337.661 35.94 338.141 35.94C338.981 35.94 339.401 36.39 339.401 37.29C339.401 38.13 339.311 39.15 339.131 40.35C338.951 41.49 338.861 43.02 338.861 44.94V69.78C338.861 70.74 339.311 71.43 340.211 71.85C341.171 72.27 342.491 72.63 344.171 72.93C344.651 73.05 344.891 73.41 344.891 74.01C344.891 74.19 344.861 74.46 344.801 74.82C344.801 75.18 344.771 75.39 344.711 75.45C344.531 75.45 344.111 75.42 343.451 75.36C342.851 75.3 342.101 75.24 341.201 75.18C340.301 75.12 339.311 75.06 338.231 75C337.211 75 336.191 75 335.171 75ZM329.951 20.91C329.951 19.47 330.431 18.24 331.391 17.22C332.411 16.14 333.671 15.6 335.171 15.6C336.611 15.6 337.811 16.14 338.771 17.22C339.731 18.24 340.211 19.47 340.211 20.91C340.211 22.47 339.731 23.73 338.771 24.69C337.811 25.65 336.611 26.13 335.171 26.13C333.671 26.13 332.411 25.65 331.391 24.69C330.431 23.73 329.951 22.47 329.951 20.91Z" fill="#252525"/>
</svg>
