<svg width="347" height="95" viewBox="0 0 347 95" fill="none" xmlns="http://www.w3.org/2000/svg">
<rect width="95" height="95" rx="20" fill="#0A696D"/>
<path d="M41.4504 50.928V70.608C41.4504 72.08 42.1544 73.136 43.5624 73.776C44.9704 74.352 47.0824 74.832 49.8984 75.216C50.6664 75.344 51.0504 75.888 51.0504 76.848C51.0504 77.296 50.9864 77.84 50.8584 78.48C49.0024 78.352 46.8904 78.224 44.5224 78.096C42.1544 78.032 39.5944 78 36.8424 78C35.1784 78 33.2904 78.032 31.1784 78.096C29.0664 78.224 27.0824 78.352 25.2264 78.48C25.0984 77.84 25.0344 77.328 25.0344 76.944C25.0344 76.048 25.3544 75.536 25.9944 75.408C28.5544 74.896 30.2504 74.416 31.0824 73.968C31.9784 73.456 32.4264 72.56 32.4264 71.28V22.416C32.4264 21.136 31.9144 20.208 30.8904 19.632C29.9304 19.056 28.1704 18.608 25.6104 18.288C24.9704 18.16 24.6504 17.584 24.6504 16.56C24.6504 16.112 24.7144 15.632 24.8424 15.12C26.6344 15.248 28.5224 15.376 30.5064 15.504C32.5544 15.568 34.4744 15.6 36.2664 15.6H49.8024C56.7144 15.6 61.8984 17.232 65.3544 20.496C68.8104 23.76 70.5384 27.984 70.5384 33.168C70.5384 35.216 70.0584 37.296 69.0984 39.408C68.2024 41.52 66.8584 43.44 65.0664 45.168C63.3384 46.832 61.1624 48.208 58.5384 49.296C55.9784 50.384 53.0664 50.928 49.8024 50.928H41.4504ZM46.5384 46.992C51.0184 46.992 54.4744 46 56.9064 44.016C59.3384 42.032 60.5544 38.672 60.5544 33.936C60.5544 31.952 60.3304 30.096 59.8824 28.368C59.4344 26.64 58.6664 25.136 57.5784 23.856C56.4904 22.512 55.0504 21.456 53.2584 20.688C51.4664 19.92 49.2264 19.536 46.5384 19.536H41.4504V46.992H46.5384Z" fill="white"/>
<path d="M131.446 53.61C131.506 53.97 131.536 54.33 131.536 54.69C131.536 54.99 131.536 55.29 131.536 55.59C131.536 56.61 131.416 57.45 131.176 58.11C130.936 58.77 130.516 59.1 129.916 59.1H111.106C110.986 58.68 110.896 58.17 110.836 57.57C110.836 56.97 110.836 56.52 110.836 56.22C110.836 54.48 111.376 53.61 112.456 53.61H131.446ZM171.177 69.63C171.597 69.21 172.047 69 172.527 69C173.127 69 173.697 69.51 174.237 70.53C173.457 71.61 172.557 72.66 171.537 73.68C170.517 74.7 169.287 75.63 167.847 76.47C166.467 77.25 164.877 77.88 163.077 78.36C161.277 78.84 159.207 79.08 156.867 79.08C154.467 79.08 152.187 78.69 150.027 77.91C147.867 77.13 145.947 75.93 144.267 74.31C142.647 72.69 141.327 70.68 140.307 68.28C139.347 65.88 138.867 63.06 138.867 59.82C138.867 56.76 139.437 53.94 140.577 51.36C141.777 48.78 143.307 46.59 145.167 44.79C147.027 42.93 149.067 41.49 151.287 40.47C153.567 39.45 155.757 38.94 157.857 38.94C163.437 38.94 167.487 40.56 170.007 43.8C172.587 47.04 173.877 51.27 173.877 56.49C173.877 56.85 173.697 57.03 173.337 57.03L147.237 58.2C147.237 60.54 147.567 62.7 148.227 64.68C148.887 66.66 149.817 68.37 151.017 69.81C152.217 71.25 153.657 72.39 155.337 73.23C157.077 74.01 159.027 74.4 161.187 74.4C163.107 74.4 164.937 73.95 166.677 73.05C168.477 72.15 169.977 71.01 171.177 69.63ZM156.597 42.18C153.597 42.18 151.257 43.35 149.577 45.69C147.897 48.03 147.057 51.09 147.057 54.87L164.067 54.06C164.967 54.06 165.417 53.67 165.417 52.89C165.417 51.75 165.237 50.55 164.877 49.29C164.517 48.03 163.977 46.89 163.257 45.87C162.537 44.79 161.607 43.92 160.467 43.26C159.387 42.54 158.097 42.18 156.597 42.18ZM204.823 50.01C204.343 50.01 203.983 49.92 203.743 49.74C203.563 49.5 203.443 49.26 203.383 49.02C202.963 46.56 201.973 44.82 200.413 43.8C198.913 42.72 197.023 42.18 194.743 42.18C193.003 42.18 191.443 42.69 190.063 43.71C188.743 44.67 188.083 46.02 188.083 47.76C188.083 49.32 188.683 50.64 189.883 51.72C191.143 52.74 193.393 53.76 196.633 54.78C198.373 55.32 199.963 55.92 201.403 56.58C202.903 57.24 204.163 58.05 205.183 59.01C206.263 59.91 207.103 61.05 207.703 62.43C208.303 63.75 208.603 65.34 208.603 67.2C208.603 68.76 208.303 70.26 207.703 71.7C207.163 73.14 206.293 74.4 205.093 75.48C203.953 76.56 202.483 77.43 200.683 78.09C198.943 78.75 196.843 79.08 194.383 79.08C192.463 79.08 190.303 78.84 187.903 78.36C185.563 77.94 183.433 77.19 181.513 76.11C181.393 74.55 181.273 72.93 181.153 71.25C181.093 69.51 181.063 67.77 181.063 66.03H181.963C182.563 66.03 183.073 66.15 183.493 66.39C183.913 66.57 184.153 66.9 184.213 67.38C184.453 69.9 185.413 71.94 187.093 73.5C188.833 75 191.233 75.75 194.293 75.75C196.753 75.75 198.643 75.21 199.963 74.13C201.283 72.99 201.943 71.46 201.943 69.54C201.943 67.56 201.223 66.06 199.783 65.04C198.343 63.96 196.213 63 193.393 62.16C189.853 61.08 187.063 59.67 185.023 57.93C183.043 56.19 182.053 53.64 182.053 50.28C182.053 48.72 182.353 47.25 182.953 45.87C183.553 44.49 184.393 43.29 185.473 42.27C186.553 41.25 187.873 40.44 189.433 39.84C190.993 39.24 192.733 38.94 194.653 38.94C197.053 38.94 199.303 39.27 201.403 39.93C203.563 40.53 205.243 41.19 206.443 41.91C206.503 42.39 206.563 42.99 206.623 43.71C206.683 44.37 206.713 45.09 206.713 45.87C206.773 46.59 206.803 47.34 206.803 48.12C206.863 48.84 206.893 49.5 206.893 50.1L204.823 50.01ZM239.628 50.01C239.148 50.01 238.788 49.92 238.548 49.74C238.368 49.5 238.248 49.26 238.188 49.02C237.768 46.56 236.778 44.82 235.218 43.8C233.718 42.72 231.828 42.18 229.548 42.18C227.808 42.18 226.248 42.69 224.868 43.71C223.548 44.67 222.888 46.02 222.888 47.76C222.888 49.32 223.488 50.64 224.688 51.72C225.948 52.74 228.198 53.76 231.438 54.78C233.178 55.32 234.768 55.92 236.208 56.58C237.708 57.24 238.968 58.05 239.988 59.01C241.068 59.91 241.908 61.05 242.508 62.43C243.108 63.75 243.408 65.34 243.408 67.2C243.408 68.76 243.108 70.26 242.508 71.7C241.968 73.14 241.098 74.4 239.898 75.48C238.758 76.56 237.288 77.43 235.488 78.09C233.748 78.75 231.648 79.08 229.188 79.08C227.268 79.08 225.108 78.84 222.708 78.36C220.368 77.94 218.238 77.19 216.318 76.11C216.198 74.55 216.078 72.93 215.958 71.25C215.898 69.51 215.868 67.77 215.868 66.03H216.768C217.368 66.03 217.878 66.15 218.298 66.39C218.718 66.57 218.958 66.9 219.018 67.38C219.258 69.9 220.218 71.94 221.898 73.5C223.638 75 226.038 75.75 229.098 75.75C231.558 75.75 233.448 75.21 234.768 74.13C236.088 72.99 236.748 71.46 236.748 69.54C236.748 67.56 236.028 66.06 234.588 65.04C233.148 63.96 231.018 63 228.198 62.16C224.658 61.08 221.868 59.67 219.828 57.93C217.848 56.19 216.858 53.64 216.858 50.28C216.858 48.72 217.158 47.25 217.758 45.87C218.358 44.49 219.198 43.29 220.278 42.27C221.358 41.25 222.678 40.44 224.238 39.84C225.798 39.24 227.538 38.94 229.458 38.94C231.858 38.94 234.108 39.27 236.208 39.93C238.368 40.53 240.048 41.19 241.248 41.91C241.308 42.39 241.368 42.99 241.428 43.71C241.488 44.37 241.518 45.09 241.518 45.87C241.578 46.59 241.608 47.34 241.608 48.12C241.668 48.84 241.698 49.5 241.698 50.1L239.628 50.01ZM259.673 78C258.653 78 257.603 78 256.523 78C255.503 78.06 254.543 78.12 253.643 78.18C252.743 78.24 251.963 78.3 251.303 78.36C250.643 78.42 250.223 78.45 250.043 78.45C250.043 78.39 250.013 78.18 249.953 77.82C249.893 77.46 249.863 77.19 249.863 77.01C249.863 76.41 250.133 76.05 250.673 75.93C252.233 75.63 253.493 75.27 254.453 74.85C255.413 74.43 255.893 73.74 255.893 72.78V48.3C255.893 46.5 255.563 45.21 254.903 44.43C254.303 43.65 252.953 43.17 250.853 42.99C250.073 42.87 249.683 42.45 249.683 41.73C249.683 41.43 249.743 41.04 249.863 40.56C250.643 40.56 251.723 40.53 253.103 40.47C254.543 40.35 255.713 40.23 256.613 40.11C257.993 39.87 259.223 39.63 260.303 39.39C261.383 39.09 262.163 38.94 262.643 38.94C263.483 38.94 263.903 39.39 263.903 40.29C263.903 41.13 263.813 42.15 263.633 43.35C263.453 44.49 263.363 46.02 263.363 47.94V72.78C263.363 73.74 263.813 74.43 264.713 74.85C265.673 75.27 266.993 75.63 268.673 75.93C269.153 76.05 269.393 76.41 269.393 77.01C269.393 77.19 269.363 77.46 269.303 77.82C269.303 78.18 269.273 78.39 269.213 78.45C269.033 78.45 268.613 78.42 267.953 78.36C267.353 78.3 266.603 78.24 265.703 78.18C264.803 78.12 263.813 78.06 262.733 78C261.713 78 260.693 78 259.673 78ZM254.453 23.91C254.453 22.47 254.933 21.24 255.893 20.22C256.913 19.14 258.173 18.6 259.673 18.6C261.113 18.6 262.313 19.14 263.273 20.22C264.233 21.24 264.713 22.47 264.713 23.91C264.713 25.47 264.233 26.73 263.273 27.69C262.313 28.65 261.113 29.13 259.673 29.13C258.173 29.13 256.913 28.65 255.893 27.69C254.933 26.73 254.453 25.47 254.453 23.91ZM314.162 72.87C314.162 73.77 314.702 74.46 315.782 74.94C316.862 75.36 318.062 75.69 319.382 75.93C319.922 76.05 320.192 76.41 320.192 77.01C320.192 77.37 320.132 77.85 320.012 78.45C318.452 78.33 316.922 78.21 315.422 78.09C313.922 78.03 312.302 78 310.562 78C308.942 78 307.322 78.03 305.702 78.09C304.142 78.21 302.582 78.33 301.022 78.45C300.902 77.85 300.842 77.37 300.842 77.01C300.842 76.41 301.112 76.05 301.652 75.93C302.912 75.69 304.052 75.36 305.072 74.94C306.092 74.46 306.602 73.77 306.602 72.87V55.23C306.602 53.73 306.512 52.35 306.332 51.09C306.152 49.83 305.792 48.75 305.252 47.85C304.772 46.89 304.082 46.17 303.182 45.69C302.342 45.15 301.232 44.88 299.852 44.88C298.352 44.88 296.882 45.15 295.442 45.69C294.002 46.17 292.712 46.92 291.572 47.94C290.492 48.9 289.622 50.1 288.962 51.54C288.302 52.98 287.972 54.63 287.972 56.49V72.87C287.972 73.77 288.482 74.46 289.502 74.94C290.582 75.36 291.722 75.69 292.922 75.93C293.462 76.05 293.732 76.41 293.732 77.01C293.732 77.37 293.672 77.85 293.552 78.45C291.992 78.33 290.462 78.21 288.962 78.09C287.462 78.03 285.872 78 284.192 78C282.452 78 280.802 78.03 279.242 78.09C277.682 78.21 276.152 78.33 274.652 78.45C274.532 77.85 274.472 77.37 274.472 77.01C274.472 76.41 274.742 76.05 275.282 75.93C276.602 75.69 277.802 75.36 278.882 74.94C279.962 74.46 280.502 73.74 280.502 72.78V48.3C280.502 46.5 280.172 45.21 279.512 44.43C278.912 43.65 277.562 43.17 275.462 42.99C274.682 42.87 274.292 42.45 274.292 41.73C274.292 41.43 274.352 41.04 274.472 40.56C275.252 40.56 276.332 40.53 277.712 40.47C279.152 40.35 280.322 40.23 281.222 40.11C282.602 39.87 283.832 39.63 284.912 39.39C285.992 39.09 286.772 38.94 287.252 38.94C288.092 38.94 288.512 39.39 288.512 40.29C288.512 41.13 288.422 42.15 288.242 43.35C288.062 44.49 287.972 46.02 287.972 47.94C290.552 45.06 293.012 42.84 295.352 41.28C297.752 39.72 300.362 38.94 303.182 38.94C306.842 38.94 309.572 40.02 311.372 42.18C313.232 44.28 314.162 47.22 314.162 51V72.87ZM335.171 78C334.151 78 333.101 78 332.021 78C331.001 78.06 330.041 78.12 329.141 78.18C328.241 78.24 327.461 78.3 326.801 78.36C326.141 78.42 325.721 78.45 325.541 78.45C325.541 78.39 325.511 78.18 325.451 77.82C325.391 77.46 325.361 77.19 325.361 77.01C325.361 76.41 325.631 76.05 326.171 75.93C327.731 75.63 328.991 75.27 329.951 74.85C330.911 74.43 331.391 73.74 331.391 72.78V48.3C331.391 46.5 331.061 45.21 330.401 44.43C329.801 43.65 328.451 43.17 326.351 42.99C325.571 42.87 325.181 42.45 325.181 41.73C325.181 41.43 325.241 41.04 325.361 40.56C326.141 40.56 327.221 40.53 328.601 40.47C330.041 40.35 331.211 40.23 332.111 40.11C333.491 39.87 334.721 39.63 335.801 39.39C336.881 39.09 337.661 38.94 338.141 38.94C338.981 38.94 339.401 39.39 339.401 40.29C339.401 41.13 339.311 42.15 339.131 43.35C338.951 44.49 338.861 46.02 338.861 47.94V72.78C338.861 73.74 339.311 74.43 340.211 74.85C341.171 75.27 342.491 75.63 344.171 75.93C344.651 76.05 344.891 76.41 344.891 77.01C344.891 77.19 344.861 77.46 344.801 77.82C344.801 78.18 344.771 78.39 344.711 78.45C344.531 78.45 344.111 78.42 343.451 78.36C342.851 78.3 342.101 78.24 341.201 78.18C340.301 78.12 339.311 78.06 338.231 78C337.211 78 336.191 78 335.171 78ZM329.951 23.91C329.951 22.47 330.431 21.24 331.391 20.22C332.411 19.14 333.671 18.6 335.171 18.6C336.611 18.6 337.811 19.14 338.771 20.22C339.731 21.24 340.211 22.47 340.211 23.91C340.211 25.47 339.731 26.73 338.771 27.69C337.811 28.65 336.611 29.13 335.171 29.13C333.671 29.13 332.411 28.65 331.391 27.69C330.431 26.73 329.951 25.47 329.951 23.91Z" fill="white"/>
</svg>
